<?xml version="1.0" encoding="utf-8"?>
<!-- Generator: Adobe Illustrator 27.5.0, SVG Export Plug-In . SVG Version: 6.00 Build 0)  -->
<svg version="1.1" xmlns="http://www.w3.org/2000/svg" xmlns:xlink="http://www.w3.org/1999/xlink" x="0px" y="0px"
	 viewBox="0 0 500 500" style="enable-background:new 0 0 500 500;" xml:space="preserve">
<g id="BACKGROUND">
	<rect style="fill:#CCCCCC;" width="500" height="500"/>
</g>
<g id="OBJECTS">
	<g>
		<g>
			<path style="fill:#4D4D4D;" d="M242.633,145.488l3.039-18.157l-2.242-7.15l8.293-5.904l8.293,5.904l-2.242,7.15l3.039,18.157
				h48.504l-8.03-23.387c-2.685-7.819-9.031-13.822-16.985-16.077c-8.558-2.426-17.67-4.11-20.358-4.586
				c0.047,0.05,0.098,0.103,0.148,0.151l-12.859,10.641l-13.604-10.641c0.059-0.056,0.115-0.115,0.171-0.177
				c-2.584,0.44-12.297,2.165-21.277,4.669c-7.969,2.222-14.315,8.256-17.001,16.081l-8.007,23.326H242.633z"/>
			<path style="fill:#4D4D4D;" d="M264.916,100.744c-1.952-1.905-3.045-7.756-3.388-12.186l-0.03-0.39l-1.932,4.07
				c0.44,2.977,1.285,6.843,2.871,9.188l-11.226,9.289l-11.908-9.315c1.911-2.847,2.741-7.907,3.083-10.916l-2.118-2.915
				l-0.074,0.989c-0.343,4.43-1.432,10.281-3.391,12.183l-0.969,0.945l15.417,12.062l14.605-12.089L264.916,100.744z"/>
			<path style="fill:#4D4D4D;" d="M273.408,59.761l-4.005,5.461l0.006-5.092c0,0-6.43-5.573-7.697-8.267
				c-3.435,1.108-7,1.66-10.565,1.66c-3.565,0-7.13-0.552-10.565-1.66c-0.614,1.306-2.522,3.373-4.277,5.11
				c-1.751,1.737-3.352,3.148-3.352,3.148v0.006c0,0.003-0.003,0.003-0.003,0.003v6.229l-4.835-6.598c0,0-0.475-17.96,8.663-18.699
				c0,0,4.173-4.212,12.753-4.714v-0.041c0.419-0.009,0.827-0.009,1.232-0.003c0.402-0.006,0.809-0.006,1.229,0.003v0.041
				c8.58,0.502,12.753,4.714,12.753,4.714C273.883,41.801,273.408,59.761,273.408,59.761z"/>
			<path style="fill:#4D4D4D;" d="M251.316,93.861l-0.335-0.004c-9.051-0.77-13.796-5.488-16.183-9.31
				c-2.575-4.124-3.003-8.041-3.02-8.206l-0.006-0.121l-0.003-16.731l0.435-0.283c1.754-1.55,6.394-5.897,7.311-7.846l0.443-0.94
				l0.989,0.319c6.674,2.153,13.729,2.153,20.403,0l0.989-0.319l0.442,0.94c0.952,2.023,5.667,6.372,7.404,7.877l0.408,0.354
				l-0.023,16.75c-0.017,0.165-0.445,4.082-3.02,8.206c-2.387,3.822-7.132,8.54-16.183,9.31L251.316,93.861z M251.132,91.498h0.083
				c14.99-1.303,16.865-14.244,16.997-15.345l0.016-15.487c-1.369-1.211-5.362-4.834-7.065-7.397
				c-6.573,1.932-13.46,1.931-20.034-0.001c-1.685,2.522-5.649,6.173-6.998,7.385l0.003,15.5
				C234.265,77.245,236.136,90.194,251.132,91.498z"/>
			<path style="fill:#4D4D4D;" d="M232.953,74.58c-3.605-0.246-4.045-1.94-3.969-3.838c0.079-1.967-0.634-4.008-1.826-8.67
				c-1.191-4.662,5.243-2.258,5.243-2.258l0.549,1.361L232.953,74.58z"/>
			<path style="fill:#4D4D4D;" d="M274.513,62.072c-1.189,4.662-1.902,6.703-1.823,8.67c0.071,1.772-0.307,3.367-3.28,3.771
				l0.016-14.382c0,0-0.072-0.057-0.202-0.162l0.062-0.155C269.286,59.814,275.7,57.41,274.513,62.072z"/>
			<path style="fill:#4D4D4D;" d="M260.68,90.572c0,0-4.529,7.876-15.949,6.892l-2.658,9.156l-4.444-5.03l3.558-11.706
				C241.187,89.883,251.918,94.608,260.68,90.572z"/>
		</g>
		<g>
			<path style="fill:#4D4D4D;" d="M428.468,354.766l-4.433,3.624l0.006-5.281c0,0-6.43-5.573-7.697-8.267
				c-3.435,1.108-7,1.663-10.565,1.663c-3.568,0-7.13-0.555-10.565-1.663c-0.617,1.308-2.522,3.37-4.277,5.109
				c-1.751,1.737-3.352,3.148-3.352,3.148v0.006c-0.003,0.003-0.003,0.003-0.003,0.003v2.259c-3.06-0.151-5.641-0.283-5.795-0.316
				c0,0,1.196-14.658,4.74-17.417c3.544-2.756,3.544-3.346,3.544-3.346l4.43-6.055l0.788,3.594l3.887-4.578l0.346,3.494l4.209-6.35
				l2.437,5.39l2.068-4.259l1.994,4.185l1.748-3.84l2.387,5.759l1.01-3.151l5.045,5.957c0,0,3.618,0.836,5.883,5.561
				C428.565,344.724,428.468,354.766,428.468,354.766z"/>
			<path style="fill:#4D4D4D;" d="M464.644,440.487l-8.724-25.407c-2.685-7.819-9.032-13.822-16.985-16.077
				c-8.559-2.426-17.671-4.11-20.358-4.587c0.047,0.05,0.098,0.103,0.148,0.151l-4.711,3.902
				c-4.758,3.934-11.613,4.029-16.477,0.224l-5.275-4.126c0.059-0.056,0.115-0.115,0.171-0.177
				c-2.584,0.44-12.298,2.165-21.278,4.669c-7.969,2.222-14.314,8.255-17.001,16.08l-8.704,25.348H464.644z"/>
			<path style="fill:#4D4D4D;" d="M419.547,393.724c-1.674-1.633-2.718-6.179-3.193-10.24c-0.083-0.672-0.145-1.323-0.196-1.953
				l-0.052-0.744c-1.044,0.806-2.191,1.478-3.441,2.025h1.24c0.052,0.548,0.124,1.199,0.227,1.912c0.424,3.131,1.312,7.481,3.1,9.92
				c-2.707,3.658-6.954,5.859-11.542,5.921h-0.196c-4.65,0-8.99-2.201-11.739-5.931c1.839-2.521,2.728-7.058,3.141-10.199
				c0.083-0.599,0.145-1.147,0.186-1.622h1.891c-1.509-0.651-2.8-1.467-3.906-2.366h-0.155l-0.083,1.085
				c-0.041,0.506-0.083,1.033-0.145,1.56c-0.455,4.154-1.519,8.949-3.245,10.633l-0.723,0.692l0.806,1.168
				c3.172,4.609,8.38,7.337,13.971,7.337h0.227c5.663-0.072,10.902-2.955,13.991-7.709l0.527-0.816L419.547,393.724z"/>
			<path style="fill:#4D4D4D;" d="M424.817,352.215c-1.736-1.498-6.448-5.849-7.409-7.874l-0.444-0.94l-0.982,0.32
				c-6.675,2.149-13.733,2.149-20.408,0l-0.982-0.32l-0.444,0.94c-0.92,1.953-5.601,6.334-7.337,7.864l-0.413,0.289v16.709
				l0.01,0.114c0.021,0.165,0.444,4.082,3.017,8.215c1.137,1.819,2.821,3.854,5.26,5.559c0.682,0.486,1.416,0.93,2.211,1.343
				c2.335,1.199,5.198,2.098,8.711,2.397l0.341,0.01l0.052-0.01c3.234-0.269,5.911-1.054,8.132-2.108
				c0.806-0.382,1.54-0.796,2.222-1.24c2.749-1.788,4.598-3.989,5.828-5.952c2.573-4.133,2.997-8.05,3.017-8.215l0.021-16.75
				L424.817,352.215z M422.844,369.13c-0.052,0.444-0.527,3.72-2.666,7.14c-1.116,1.788-2.47,3.296-4.071,4.516
				c-1.044,0.806-2.191,1.478-3.441,2.025c-2.015,0.889-4.299,1.447-6.82,1.664h-0.083c-2.656-0.227-4.898-0.827-6.789-1.664
				c-1.509-0.651-2.8-1.467-3.906-2.366c-5.311-4.309-6.21-10.571-6.303-11.315v-15.5c1.343-1.209,5.311-4.857,6.996-7.378
				c6.572,1.922,13.464,1.932,20.036,0c1.705,2.563,5.694,6.179,7.068,7.388L422.844,369.13z"/>
			<path style="fill:#4D4D4D;" d="M387.585,367.559c-3.605-0.246-4.045-1.94-3.969-3.838c0.08-1.967-0.634-4.008-1.826-8.67
				c-1.191-4.662,5.243-2.258,5.243-2.258l0.549,1.361L387.585,367.559z"/>
			<path style="fill:#4D4D4D;" d="M429.145,355.051c-1.189,4.662-1.902,6.703-1.823,8.67c0.071,1.772-0.307,3.367-3.28,3.771
				l0.016-14.382c0,0-0.072-0.057-0.201-0.162l0.062-0.155C423.918,352.793,430.332,350.389,429.145,355.051z"/>
			<path style="fill:#4D4D4D;" d="M415.312,383.551c0,0-4.529,7.876-15.949,6.891l-2.658,9.156l-4.444-5.03l3.558-11.706
				C395.819,382.862,406.55,387.587,415.312,383.551z"/>
		</g>
		<g>
			<path style="fill:#4D4D4D;" d="M242.359,440.487l3.313-19.794l-2.242-7.15l8.293-5.904l8.293,5.904l-2.242,7.15l3.313,19.794
				h48.792l-8.592-25.024c-2.685-7.819-9.031-13.822-16.985-16.077c-8.557-2.426-17.669-4.11-20.358-4.586
				c0.047,0.05,0.097,0.103,0.148,0.151l-12.859,10.641l-13.604-10.641c0.059-0.056,0.115-0.115,0.171-0.177
				c-2.584,0.44-12.297,2.165-21.277,4.669c-7.969,2.222-14.315,8.256-17.001,16.081l-8.569,24.963H242.359z"/>
			<path style="fill:#4D4D4D;" d="M264.916,394.107c-1.861-1.813-2.942-7.221-3.335-11.56c-0.685,0.478-1.429,0.927-2.239,1.329
				c0.343,3.024,1.178,8.081,3.095,10.913l-11.226,9.289l-11.909-9.315c1.973-2.939,2.791-8.228,3.113-11.197
				c-0.812-0.44-1.557-0.93-2.239-1.45c-0.357,4.404-1.444,10.113-3.373,11.991l-0.969,0.942l15.417,12.062l14.605-12.089
				L264.916,394.107z"/>
			<path style="fill:#4D4D4D;" d="M260.68,383.935c0,0-4.529,7.876-15.949,6.891l-2.658,9.156l-4.444-5.03l3.558-11.706
				C241.187,383.246,251.918,387.971,260.68,383.935z"/>
			<path style="fill:#4D4D4D;" d="M273.715,355.354l-4.309,1.172l0.003-3.033l-4.2-5.984c-4.46,0.57-8.949,0.857-13.438,0.857
				s-8.979-0.287-13.438-0.857l-5.381,5.984v3.086l-4.501-1.226c0,0-0.697-17.296,9.129-23.179c1.276-0.762,2.487-1.412,3.63-1.967
				c1.554-0.75,3.172-1.311,4.829-1.683c1.654-0.372,3.346-0.558,5.044-0.558c3.396,0,6.763,0.741,9.871,2.242
				c1.143,0.555,2.357,1.205,3.63,1.967C274.409,338.058,273.715,355.354,273.715,355.354z"/>
			<path style="fill:#4D4D4D;" d="M251.316,387.224l-0.335-0.004c-9.051-0.77-13.796-5.487-16.183-9.31
				c-2.575-4.124-3.003-8.041-3.02-8.206l-0.006-0.121l-0.003-16.543l6.1-6.783l0.615,0.079c8.817,1.131,17.759,1.131,26.576,0
				l0.708-0.091l4.826,6.875l-0.023,16.583c-0.017,0.165-0.445,4.082-3.02,8.206c-2.387,3.822-7.132,8.54-16.183,9.31
				L251.316,387.224z M251.131,384.861h0.083c6.46-0.561,11.281-3.321,14.33-8.203c2.136-3.421,2.611-6.697,2.667-7.145
				l0.016-15.647l-3.578-5.097c-8.582,1.041-17.272,1.038-25.852-0.012l-4.667,5.189l0.003,15.57
				C234.265,370.608,236.136,383.557,251.131,384.861z"/>
			<path style="fill:#4D4D4D;" d="M232.953,367.943c-3.604-0.246-4.045-1.94-3.969-3.838c0.079-1.967-0.634-4.008-1.826-8.67
				c-1.191-4.662,5.243-2.258,5.243-2.258l0.549,1.361L232.953,367.943z"/>
			<path style="fill:#4D4D4D;" d="M274.513,355.435c-1.189,4.662-1.902,6.703-1.823,8.67c0.071,1.772-0.307,3.367-3.28,3.771
				l0.016-14.382c0,0-0.072-0.057-0.202-0.162l0.062-0.155C269.286,353.177,275.7,350.773,274.513,355.435z"/>
		</g>
		<g>
			<path style="fill:#4D4D4D;" d="M121.36,87.471c-1.241-3.798-1.811-8.234-0.668-12.936c2.381-9.797-0.056-23.135-0.056-23.135
				c-2.832-22.99-15.476-17.476-15.476-17.476c-1.624-2.806-7.088-2.953-7.088-2.953C76.955,29.051,71.057,51.4,71.057,51.4
				s-2.437,13.338-0.053,23.135c1.143,4.702,0.573,9.138-0.668,12.936c-1.858,5.683,3.196,11.268,9.732,10.698l4.032-0.351
				c1.019-2.827,1.524-6.418,1.74-8.66c-7.466-4.826-8.341-13.32-8.341-13.32l-0.003-16.091c0,0,0.003,0,0.003-0.003v-0.006
				c0,0,16.291-4.105,24.561-12.67l11.911,12.257l-0.033,16.513c0,0-0.919,8.934-8.925,13.677c0.23,2.233,0.727,5.559,1.672,8.226
				l4.941,0.428C118.162,98.738,123.218,93.153,121.36,87.471z"/>
			<path style="fill:#4D4D4D;" d="M153.994,145.488l-8.223-23.948c-2.637-7.68-8.816-13.602-16.587-15.96
				c-8.572-2.601-17.762-4.499-20.479-4.98c0.047,0.05-0.118,0.558-0.068,0.605l-12.859,33.484l-13.604-33.484
				c0.056-0.056-0.439-0.436-0.382-0.495c-2.6,0.442-12.168,2.313-21.02,4.931c-7.809,2.31-14.004,8.276-16.648,15.978
				l-8.196,23.869H153.994z"/>
			<path style="fill:#4D4D4D;" d="M109.461,100.36c-1.861-1.816-2.942-7.224-3.332-11.563c-0.688,0.481-1.435,0.93-2.248,1.335
				c0.744,6.852,2.425,10.006,3.405,11.309l-11.539,30.557l-12.213-30.569c0.998-1.329,2.705-4.56,3.429-11.607
				c-0.815-0.443-1.559-0.93-2.242-1.45c-0.354,4.404-1.444,10.11-3.373,11.985l-0.567,0.552l15.027,37.616l14.206-37.627
				L109.461,100.36z"/>
			<path style="fill:#4D4D4D;" d="M105.225,90.188c0,0-4.529,7.876-15.949,6.892l-3.166,10.633l-3.936-6.507l3.558-11.706
				C85.732,89.499,96.463,94.224,105.225,90.188z"/>
			<path style="fill:#4D4D4D;" d="M77.498,74.196c-3.604-0.246-4.045-1.94-3.969-3.838c0.079-1.966-0.634-4.008-1.826-8.67
				c-1.191-4.662,5.243-2.258,5.243-2.258l0.549,1.361L77.498,74.196z"/>
			<path style="fill:#4D4D4D;" d="M119.058,61.688c-1.189,4.662-1.902,6.703-1.823,8.67c0.071,1.772-0.307,3.367-3.28,3.771
				l0.016-14.382c0,0-0.072-0.057-0.202-0.162l0.062-0.155C113.831,59.43,120.245,57.026,119.058,61.688z"/>
			<path style="fill:#4D4D4D;" d="M95.861,93.477l-0.335-0.004c-9.051-0.77-13.796-5.488-16.183-9.31
				c-2.575-4.123-3.003-8.041-3.02-8.206l-0.006-0.121l-0.003-16.713l0.003-0.002v-0.297l0.893-0.233
				c0.04-0.01,4.077-1.038,9.053-3.084c6.516-2.679,11.684-5.881,14.947-9.261l0.847-0.877l13.096,13.476l-0.039,17.112
				c-0.017,0.165-0.445,4.082-3.02,8.206c-2.387,3.822-7.132,8.54-16.183,9.31L95.861,93.477z M95.676,91.114h0.083
				c14.992-1.304,16.866-14.247,16.997-15.346l0.031-15.966l-10.746-11.058c-7.512,7.098-19.921,10.934-23.366,11.899l0.003,15.127
				C78.81,76.861,80.681,89.81,95.676,91.114z"/>
		</g>
		<g>
			<path style="fill:#4D4D4D;" d="M118.992,197.029c-1.285,1.492-1.881,3.458-1.746,5.423l0.431,6.217h-3.727l0.003-2.962
				l-0.115-8.949c-2.629,0.848-11.176,1.624-16.539,1.574c-8.66-0.083-17.278-0.892-17.278-0.892
				c-1.229,2.614-2.522,8.258-2.522,8.258v0.006l-0.003,0.003v2.962h-3.677l-2.118-1.022c0,0-5.045-18.988,6.326-20.538
				c0,0,3.323-4.947,9.082-4.873c7.162,0.092,25.645,4.407,33.324-1.131C120.433,181.103,123.481,191.819,118.992,197.029z"/>
			<path style="fill:#4D4D4D;" d="M154.39,292.487l-8.593-25.266c-2.66-7.82-8.98-13.845-16.921-16.12
				c-9.232-2.645-19.118-4.418-20.895-4.729c0.204,0.298,0.422,0.564,0.656,0.791l-12.859,10.641l-13.604-10.641
				c0.239-0.23,0.461-0.505,0.671-0.812c-1.426,0.239-11.931,2.04-21.632,4.76c-8.022,2.249-14.43,8.288-17.113,16.176
				l-8.569,25.201H154.39z"/>
			<path style="fill:#4D4D4D;" d="M109.461,246.316c-1.864-1.813-2.942-7.221-3.335-11.563c-0.685,0.481-1.429,0.93-2.242,1.335
				c0.345,3.021,1.181,8.081,3.098,10.913l-11.226,9.289l-11.909-9.315c1.973-2.936,2.791-8.228,3.113-11.194
				c-0.812-0.443-1.556-0.93-2.239-1.453c-0.357,4.407-1.447,10.113-3.373,11.988l-0.969,0.945l15.417,12.059l14.605-12.086
				L109.461,246.316z"/>
			<path style="fill:#4D4D4D;" d="M95.86,239.436l-0.335-0.004c-9.051-0.77-13.796-5.488-16.183-9.31
				c-2.575-4.124-3.003-8.041-3.02-8.206l-0.006-0.121l-0.004-16.705l0.136-0.095c0.335-1.4,1.424-5.766,2.503-8.06l0.353-0.751
				l0.826,0.078c0.086,0.008,8.671,0.805,17.179,0.887c5.404,0.052,13.716-0.728,16.165-1.518l1.523-0.491l0.137,10.566
				l-0.016,16.15l-0.006,0.06c-0.017,0.165-0.445,4.082-3.02,8.206c-2.387,3.822-7.132,8.54-16.183,9.31L95.86,239.436z
				 M95.676,237.073h0.084c14.99-1.303,16.865-14.244,16.997-15.345l0.016-16.016l-0.097-7.455
				c-3.76,0.752-10.92,1.299-15.389,1.255c-7.034-0.068-14.115-0.618-16.519-0.822c-0.962,2.429-1.911,6.381-2.09,7.141v15.897
				C78.809,222.82,80.68,235.769,95.676,237.073z"/>
			<path style="fill:#4D4D4D;" d="M77.497,220.155c-3.605-0.246-4.045-1.94-3.969-3.838c0.079-1.967-0.634-4.008-1.826-8.67
				c-1.191-4.662,5.243-2.258,5.243-2.258l0.549,1.361L77.497,220.155z"/>
			<path style="fill:#4D4D4D;" d="M119.058,207.647c-1.189,4.662-1.902,6.703-1.823,8.67c0.071,1.772-0.307,3.367-3.28,3.771
				l0.016-14.382c0,0-0.072-0.057-0.202-0.162l0.062-0.155C113.83,205.389,120.245,202.985,119.058,207.647z"/>
			<path style="fill:#4D4D4D;" d="M105.224,236.146c0,0-4.529,7.876-15.949,6.891l-2.658,9.156l-4.444-5.03l3.558-11.706
				C85.731,235.457,96.462,240.183,105.224,236.146z"/>
			<path style="fill:#4D4D4D;" d="M112.982,215.461c0,7.581-6.695,12.011-6.695,12.011c-1.988-5.271-9.207-5.46-10.943-5.428
				c-1.735-0.033-8.955,0.157-10.943,5.428c0,0-6.694-4.43-6.694-12.011c0,0-2.12,21.251,17.357,22.752l0,0.041
				c0.095-0.005,0.186-0.014,0.28-0.021c0.094,0.006,0.185,0.015,0.281,0.021l0-0.041
				C115.103,236.712,112.982,215.461,112.982,215.461z M95.353,234.68l-0.008,0.001l-0.008-0.001
				c-3.603-0.278-6.463-1.315-8.675-3.155l1.056-2.802c1.126-2.986,6.312-3.137,7.34-3.137c0.083,0,0.286,0.003,0.286,0.003
				s0.204-0.003,0.287-0.003c1.028,0,6.214,0.151,7.34,3.137l1.056,2.802C101.816,233.365,98.956,234.402,95.353,234.68z"/>
		</g>
		<g>
			<path style="fill:#4D4D4D;" d="M464.439,292.487l-8.52-24.812c-2.685-7.819-9.032-13.822-16.985-16.077
				c-8.559-2.426-17.671-4.11-20.358-4.587c0.047,0.05,0.097,0.103,0.148,0.151l-12.859,10.641l-13.604-10.641
				c0.059-0.056-0.419-0.119-0.363-0.181c-2.578,0.439-12.035,2.158-20.84,4.654c-7.918,2.244-14.213,8.262-16.886,16.047
				l-8.517,24.805H464.439z"/>
			<path style="fill:#4D4D4D;" d="M408.29,179.045c-32.931,0-27.663,37.599-26.975,46.577c0.8,10.455,14.767,14.954,14.767,14.954
				l10.583-0.721l8.104,0.721c0,0,14.871-4.498,15.671-14.954C431.129,216.644,436.052,179.193,408.29,179.045z M424.025,221.794
				c0,0-1.549,15.049-18.128,16.459h-0.185c-16.579-1.41-18.128-16.459-18.128-16.459l-0.003-16.09c0,0,20.413-4.853,25.139-9.579
				c0,0,5.643,6.301,11.337,9.722L424.025,221.794z"/>
			<g>
				<path style="fill:#4D4D4D;" d="M419.548,246.318c-1.861-1.816-2.942-7.224-3.334-11.563c-0.685,0.481-1.43,0.927-2.242,1.332
					c0.345,3.024,1.181,8.081,3.098,10.913l-11.226,9.289l-11.909-9.315c1.97-2.936,2.791-8.225,3.113-11.194
					c-0.812-0.443-1.557-0.93-2.239-1.45c-0.357,4.404-1.447,10.113-3.373,11.988l-0.969,0.942l15.417,12.062l14.605-12.089
					L419.548,246.318z"/>
				<path style="fill:#4D4D4D;" d="M415.312,236.146c0,0-4.529,7.876-15.949,6.891l-2.658,9.156l-4.444-5.03l3.558-11.706
					C395.819,235.457,406.55,240.182,415.312,236.146z"/>
				<path style="fill:#4D4D4D;" d="M387.585,220.154c-3.605-0.246-4.045-1.94-3.969-3.838c0.08-1.966-0.634-4.008-1.826-8.67
					c-1.191-4.662,5.243-2.258,5.243-2.258l0.549,1.361L387.585,220.154z"/>
				<path style="fill:#4D4D4D;" d="M429.145,207.647c-1.189,4.662-1.902,6.703-1.823,8.67c0.071,1.772-0.307,3.367-3.28,3.772
					l0.016-14.382c0,0-0.072-0.057-0.202-0.162l0.062-0.155C423.918,205.388,430.332,202.984,429.145,207.647z"/>
				<path style="fill:#4D4D4D;" d="M405.948,239.435l-0.335-0.004c-9.051-0.77-13.796-5.488-16.183-9.31
					c-2.575-4.124-3.003-8.041-3.02-8.206l-0.006-0.121l-0.003-17.039l0.927-0.205c5.831-1.288,21.769-5.438,25.444-9.113
					l0.948-0.949l0.821,1.061c0.046,0.06,4.695,6.022,10.125,9.284l0.575,0.345l-0.04,16.735c-0.017,0.165-0.445,4.082-3.02,8.206
					c-2.387,3.822-7.132,8.54-16.183,9.31L405.948,239.435z M405.763,237.072h0.083c6.46-0.561,11.281-3.321,14.33-8.203
					c2.137-3.423,2.611-6.7,2.667-7.145l0.031-15.219c-4.271-2.721-7.894-6.734-9.427-8.555c-5.528,4.068-20.721,7.778-24.684,8.698
					l0.003,15.08C388.897,222.819,390.768,235.768,405.763,237.072z"/>
			</g>
		</g>
		<g>
			<path style="fill:#4D4D4D;" d="M154.565,440.487l-9.352-26.166c-2.749-7.691-9.057-13.561-16.915-15.787
				c-9.373-2.655-19.434-4.453-21.012-4.729c0.162,0.219,0.337,0.413,0.52,0.588l-5.009,4.25
				c-4.504,3.825-11.067,3.999-15.766,0.414l-6.17-4.713c0.037-0.037-10.749,2.163-20.625,5.145
				c-7.896,2.384-14.152,8.437-16.733,16.271l-8.146,24.727H154.565z"/>
			<path style="fill:#4D4D4D;" d="M108.618,393.537c-1.645-1.562-2.729-5.869-3.272-9.82c-0.112-0.798-0.198-1.58-0.266-2.324
				l-0.027-0.292c-0.83,0.591-1.757,1.131-2.791,1.601l0.573-0.006c0.071,0.62,0.165,1.37,0.295,2.197
				c0.481,3.101,1.426,7.257,3.193,9.599c-2.655,3.754-6.908,6.028-11.545,6.129c-4.711,0.1-9.144-2.07-11.947-5.836
				c1.872-2.62,2.702-7.401,3.057-10.559c0.056-0.484,0.097-0.927,0.133-1.32l2.46-0.029c-1.506-0.647-2.797-1.438-3.899-2.316
				l-0.765,0.009l-0.071,1.093c-0.024,0.369-0.053,0.75-0.089,1.137c-0.375,4.25-1.379,9.324-3.148,11.09l-0.694,0.691l0.706,1.04
				c3.163,4.631,8.352,7.366,13.943,7.366c0.121,0,0.242-0.003,0.363-0.006c5.73-0.121,10.954-3.098,13.979-7.963l0.511-0.818
				L108.618,393.537z"/>
			<path style="fill:#4D4D4D;" d="M104.254,383.419c0,0-4.43,7.932-15.861,7.091l-2.543,9.188l-4.507-4.974l3.411-11.75
				C84.754,382.975,95.544,387.565,104.254,383.419z"/>
			<path style="fill:#4D4D4D;" d="M95.322,386.835l-0.335-0.004c-9.051-0.77-13.796-5.487-16.183-9.31
				c-2.575-4.124-3.003-8.041-3.02-8.206l-0.006-0.121l-0.004-16.705l0.004-0.003v-0.53l1.145-0.043
				c0.148-0.005,15.006-0.553,28.208-8.102l1.111-0.635l0.545,1.158c0.952,2.023,5.667,6.372,7.404,7.877l0.408,0.354l-0.023,16.75
				c-0.017,0.165-0.445,4.082-3.02,8.206c-2.387,3.822-7.132,8.54-16.183,9.31L95.322,386.835z M95.137,384.472h0.083
				c14.99-1.303,16.865-14.244,16.997-15.345l0.016-15.487c-1.337-1.182-5.174-4.664-6.94-7.213
				c-11.432,6.219-23.441,7.523-27.156,7.786l0.003,14.915C78.271,370.218,80.142,383.168,95.137,384.472z"/>
			<path style="fill:#4D4D4D;" d="M114.188,352.212c-1.737-1.506-6.451-5.854-7.402-7.877l-0.546-1.158l-1.11,0.635
				c-13.202,7.549-28.058,8.095-28.209,8.101l-1.143,0.044v0.529l-0.003,0.003l0.003,16.705l0.006,0.121
				c0.018,0.165,0.443,4.082,3.019,8.205c1.081,1.725,2.637,3.633,4.855,5.278c0.679,0.505,1.421,0.984,2.23,1.427
				c2.398,1.311,5.384,2.289,9.1,2.605l0.334,0.006l0.05-0.006c3.051-0.26,5.612-0.966,7.759-1.937
				c0.795-0.357,1.53-0.753,2.215-1.176c2.956-1.822,4.924-4.138,6.208-6.196c2.576-4.123,3.004-8.039,3.021-8.205l0.024-16.749
				L114.188,352.212z M112.218,369.126c-0.095,0.789-1.087,7.664-7.165,11.974c-0.83,0.591-1.757,1.131-2.791,1.601
				c-1.946,0.892-4.268,1.53-7.041,1.772h-0.083c-2.59-0.225-4.791-0.801-6.657-1.598c-1.506-0.647-2.797-1.438-3.899-2.316
				c-5.44-4.321-6.353-10.683-6.441-11.433l-0.003-14.915c3.712-0.263,15.724-1.565,27.154-7.785
				c1.766,2.549,5.606,6.031,6.941,7.212L112.218,369.126z"/>
			<path style="fill:#4D4D4D;" d="M76.959,367.554c-3.605-0.246-4.045-1.94-3.969-3.838c0.079-1.966-0.634-4.008-1.826-8.67
				c-1.191-4.662,5.243-2.258,5.243-2.258l0.549,1.361L76.959,367.554z"/>
			<path style="fill:#4D4D4D;" d="M118.519,355.046c-1.189,4.662-1.902,6.703-1.823,8.67c0.071,1.772-0.307,3.367-3.281,3.771
				l0.016-14.382c0,0-0.072-0.057-0.202-0.162l0.062-0.155C113.292,352.788,119.706,350.384,118.519,355.046z"/>
			<g>
				<path style="fill:#4D4D4D;" d="M115.91,359.327c-0.721,0.916-1.568,1.713-2.505,2.404l0.009-8.627c0,0-6.43-5.573-7.697-8.267
					c-6.817,3.899-14.006,5.96-19.493,7.053c-5.485,1.09-9.265,1.205-9.265,1.205v0.006c0,0.003-0.003,0.003-0.003,0.003v5.337
					l-5.251-2.363c0,0-5.437-20.766,11.962-26.729c21.117-7.236,27.518-0.346,31.847,4.578
					C119.992,339.013,122.703,350.664,115.91,359.327z"/>
				<ellipse style="fill:#4D4D4D;" cx="96.687" cy="324.995" rx="13.798" ry="8.829"/>
			</g>
		</g>
		<g>
			<path style="fill:#4D4D4D;" d="M382.542,110.882c-1.181-2.296-1.985-4.798-2.291-7.445c5.662-1.264,10.479-2.118,12.183-2.41
				c2.248-2.439,3.175-8.598,3.494-11.87c-7.469-4.826-8.344-13.32-8.344-13.32l-0.003-16.09c0,0,0.003,0,0.003-0.003v-0.006
				c0,0,9.188-4.253,17.458-12.818l19.015,12.405l-0.033,16.513c0,0-0.919,8.937-8.928,13.681c0.354,3.361,1.299,9.2,3.488,11.536
				c0.038,0.044,0.077,0.089,0.121,0.127c2.038,0.325,5.68,0.951,9.587,1.811c-0.265,2.81-1.081,5.468-2.327,7.891h11.311
				c-0.334-1.895-0.677-3.894-1.022-5.974c-2.177-13.11-4.187-24.791-4.542-38.129c-1.102-41.514-21.428-36.783-28.26-33.493
				c-3.151-1.48-24.07-8.678-26.07,28.379c-0.771,14.327-3.382,29.229-6.129,44.005c-0.336,1.81-0.666,3.548-0.986,5.212H382.542z"
				/>
			<path style="fill:#4D4D4D;" d="M464.08,145.488l-8.16-23.769c-2.682-7.812-9.017-13.817-16.962-16.071
				c-0.898-0.255-1.802-0.501-2.703-0.739c-2.747-0.724-5.476-1.368-7.963-1.917c-1.099,11.634-11.445,20.751-24.044,20.751
				c-12.434,0-22.677-8.887-23.997-20.305c-2.88,0.641-5.978,1.394-8.996,2.233c-0.052,0.014-0.103,0.029-0.155,0.043
				c-7.947,2.22-14.265,8.258-16.945,16.062l-8.142,23.712H464.08z"/>
			<g>
				<path style="fill:#4D4D4D;" d="M396.409,106.335l-14.227,3.86c-0.992-2.103-1.657-4.377-1.932-6.758
					c5.662-1.264,10.479-2.118,12.183-2.41c0.033-0.035,0.065-0.071,0.092-0.106l0.275,0.094L396.409,106.335z"/>
				<path style="fill:#4D4D4D;" d="M405.935,96.799"/>
				<path style="fill:#4D4D4D;" d="M387.585,74.196c-3.605-0.246-4.045-1.94-3.969-3.838c0.079-1.966-0.634-4.008-1.826-8.67
					c-1.191-4.662,5.243-2.258,5.243-2.258l0.549,1.361L387.585,74.196z"/>
				<path style="fill:#4D4D4D;" d="M429.145,61.688c-1.189,4.662-1.902,6.703-1.823,8.67c0.071,1.772-0.307,3.367-3.28,3.771
					l0.016-14.382c0,0-0.072-0.057-0.202-0.162l0.062-0.155C423.918,59.43,430.332,57.026,429.145,61.688z"/>
				<path style="fill:#4D4D4D;" d="M405.948,93.477l-0.335-0.004c-9.051-0.77-13.796-5.488-16.183-9.31
					c-2.575-4.123-3.003-8.041-3.02-8.206l-0.006-0.121L386.4,59.143l0.003-0.002v-0.203l0.752-0.301
					c0.104-0.041,10.518-4.187,16.338-12.26l0.647-0.897l21.1,13.191l-0.04,17.287c-0.017,0.165-0.445,4.082-3.02,8.206
					c-2.387,3.822-7.132,8.54-16.183,9.31L405.948,93.477z M405.764,91.114h0.083c6.46-0.561,11.281-3.321,14.329-8.203
					c2.137-3.423,2.612-6.7,2.667-7.145l0.031-15.789l-18.13-11.334c-5.391,6.891-13.481,10.79-15.981,11.881l0.003,15.246
					C388.897,76.861,390.768,89.81,405.764,91.114z"/>
				<path style="fill:#4D4D4D;" d="M420.216,101.423l-0.666-1.064c-1.864-1.816-2.945-7.221-3.337-11.56
					c-0.354,0.248-0.727,0.49-1.116,0.718c-0.36,0.216-0.732,0.419-1.122,0.611c0.021,0.184,0.044,0.376,0.069,0.573
					c-6.695,2.424-14.151,0.283-17.012-0.736c0.005-0.048,0.012-0.101,0.017-0.147c-0.39-0.21-0.762-0.431-1.119-0.662
					c-0.39-0.254-0.762-0.514-1.116-0.786c-0.357,4.404-1.447,10.11-3.373,11.985l-0.679,0.661h1.559l-0.057,0.188l4.105,5.153
					l2.997-9.279c8.198,0.707,12.844-3.152,14.814-5.386c0.432,2.989,1.274,6.935,2.877,9.324L420.216,101.423z"/>
				<path style="fill:#4D4D4D;" d="M396.409,106.335l-14.227,3.86c-0.992-2.103-1.657-4.377-1.932-6.758
					c5.662-1.264,9.649-2.288,11.353-2.58c0.032-0.035,0.895,0.099,0.922,0.063l0.275,0.094L396.409,106.335z"/>
			</g>
		</g>
		<g>
			<path style="fill:#4D4D4D;" d="M281.143,240.281h-19.939c-0.363-1.746-0.597-3.473-0.735-4.808
				c8.007-4.743,8.926-13.678,8.926-13.678l0.032-15.946l-12.895,0.024l-4.725-5.464l-4.726,5.296c0,0-13.784-0.053-14.13,0
				l0.003,16.091c0,0,0.874,8.494,8.341,13.32c-0.133,1.373-0.372,3.261-0.774,5.166h-19.334c0,0,3.521-28.436,7.038-44.485
				c3.231-14.729,20.019-15.701,22.751-15.763v-0.003c0,0,0.068,0,0.189,0c0.121,0,0.189,0,0.189,0v0.003
				c2.732,0.062,19.52,1.034,22.751,15.763C277.622,211.845,281.143,240.281,281.143,240.281z"/>
			<path style="fill:#4D4D4D;" d="M237.759,246.994c-0.177,0.033-0.387,0.068-0.626,0.109
				C237.372,247.059,237.582,247.024,237.759,246.994z"/>
			<path style="fill:#4D4D4D;" d="M309.807,292.487l-8.521-24.815c-2.679-7.803-9.004-13.809-16.941-16.063
				c-5.533-1.571-11.303-2.832-15.422-3.656c-1.335,12.186-9.064,34.659-18.4,34.659c-9.315,0-17.033-22.379-18.391-34.582
				c-4.242,0.83-10.041,2.074-15.568,3.613c-7.983,2.223-14.349,8.253-17.04,16.091l-8.499,24.753H309.807z"/>
			<path style="fill:#4D4D4D;" d="M270.51,248.488l-0.886,2.191l-6.19-2.507l-0.165-0.162c-2.513-2.448-3.538-8.494-3.922-11.923
				c0.809-0.405,1.553-0.854,2.239-1.329c0.378,4.223,1.412,9.454,3.184,11.403L270.51,248.488z"/>
			<path style="fill:#4D4D4D;" d="M260.68,236.146c-0.567,0.261-0.709-0.942-0.327-1.926h-0.08c-2.522,1.592-5.55,2.549-9.058,2.853
				h-0.083c-3.801-0.331-6.758-1.409-9.055-2.853h-0.703c-0.027,0.359-0.067,0.791-0.117,1.266c-0.041-0.018-0.07-0.03-0.07-0.03
				l-3.557,11.704c0,0-0.001,0.001-0.001,0.001l-5.497,0.869l0.13,11.005c0,0,12.628-3.994,14.686-15.918
				C256.74,242.991,260.68,236.146,260.68,236.146z"/>
			<path style="fill:#4D4D4D;" d="M232.953,220.154c-3.605-0.246-4.045-1.94-3.969-3.838c0.079-1.966-0.634-4.008-1.827-8.67
				c-1.191-4.662,5.243-2.258,5.243-2.258l0.549,1.361L232.953,220.154z"/>
			<path style="fill:#4D4D4D;" d="M274.514,207.647c-1.189,4.662-1.902,6.703-1.823,8.67c0.071,1.772-0.307,3.367-3.28,3.772
				l0.016-14.382c0,0-0.072-0.057-0.202-0.162l0.062-0.155C269.286,205.388,275.701,202.984,274.514,207.647z"/>
			<path style="fill:#4D4D4D;" d="M251.316,239.435l-0.335-0.004c-9.051-0.77-13.796-5.488-16.183-9.31
				c-2.575-4.124-3.003-8.041-3.02-8.206l-0.006-0.121l-0.004-17.102l1.001-0.155c0.118-0.018,0.43-0.067,13.783-0.016l5.267-5.903
				l5.251,6.072l13.54-0.026l-0.041,17.251c-0.017,0.165-0.445,4.082-3.02,8.206c-2.387,3.822-7.132,8.54-16.183,9.31
				L251.316,239.435z M251.132,237.072h0.083c6.46-0.561,11.281-3.321,14.33-8.203c2.138-3.423,2.612-6.7,2.668-7.145l0.03-14.693
				l-12.251,0.023l-4.2-4.856l-4.184,4.69l-0.532-0.002c-4.308-0.017-10.454-0.032-12.943-0.019l0.003,14.861
				C234.265,222.819,236.136,235.768,251.132,237.072z"/>
			<path style="fill:#4D4D4D;" d="M260.273,234.22c-2.522,1.592-5.55,2.549-9.058,2.853h-0.083
				c-3.801-0.331-6.758-1.409-9.055-2.853h-0.703c-0.044,0.579-0.115,1.332-0.222,2.186c2.514,1.518,5.73,2.676,9.829,3.024
				l0.334,0.006l0.05-0.006c2.555-0.216,4.77-0.747,6.681-1.486c0.922-0.995,1.722-2.218,2.307-3.724H260.273z"/>
		</g>
	</g>
</g>
<g id="DESIGNED_BY_FREEPIK">
	<g>
		<g>
			<path style="fill:#4D4D4D;" d="M180.308,484.784v-0.161c-0.218,0.249-0.432,0.452-0.644,0.608
				c-0.212,0.157-0.441,0.276-0.689,0.356c-0.247,0.082-0.517,0.122-0.81,0.122c-0.388,0-0.747-0.082-1.078-0.246
				c-0.33-0.164-0.616-0.399-0.857-0.704c-0.242-0.305-0.425-0.662-0.549-1.074c-0.124-0.412-0.187-0.857-0.187-1.335
				c0-1.013,0.247-1.804,0.742-2.369c0.495-0.565,1.146-0.848,1.953-0.848c0.467,0,0.861,0.081,1.181,0.24
				c0.321,0.16,0.633,0.408,0.938,0.739v-2.392c0-0.333,0.066-0.584,0.199-0.754c0.132-0.17,0.321-0.255,0.567-0.255
				c0.245,0,0.434,0.078,0.567,0.234c0.133,0.157,0.199,0.386,0.199,0.691v7.147c0,0.309-0.071,0.54-0.214,0.695
				c-0.143,0.154-0.326,0.231-0.552,0.231c-0.221,0-0.405-0.08-0.549-0.24C180.38,485.309,180.308,485.081,180.308,484.784z
				 M177.12,482.404c0,0.439,0.068,0.813,0.205,1.122c0.137,0.309,0.324,0.541,0.561,0.697c0.238,0.157,0.497,0.236,0.777,0.236
				c0.285,0,0.545-0.075,0.781-0.223c0.235-0.148,0.423-0.376,0.564-0.682c0.141-0.307,0.211-0.691,0.211-1.149
				c0-0.432-0.07-0.803-0.211-1.114c-0.14-0.31-0.33-0.547-0.57-0.712c-0.24-0.164-0.502-0.245-0.786-0.245
				c-0.297,0-0.562,0.084-0.796,0.252c-0.233,0.168-0.414,0.409-0.543,0.724C177.184,481.623,177.12,481.988,177.12,482.404z"/>
			<path style="fill:#4D4D4D;" d="M187.454,482.814h-3.17c0.004,0.367,0.078,0.692,0.223,0.973c0.144,0.281,0.336,0.493,0.576,0.635
				c0.24,0.143,0.504,0.213,0.793,0.213c0.194,0,0.371-0.022,0.531-0.067c0.16-0.046,0.316-0.117,0.466-0.214
				c0.15-0.096,0.289-0.201,0.415-0.312c0.126-0.111,0.29-0.262,0.493-0.452c0.083-0.071,0.202-0.107,0.357-0.107
				c0.166,0,0.3,0.046,0.403,0.137c0.103,0.092,0.155,0.219,0.155,0.386c0,0.147-0.058,0.317-0.172,0.513
				c-0.116,0.196-0.289,0.384-0.52,0.564c-0.232,0.18-0.522,0.329-0.873,0.448c-0.35,0.119-0.753,0.178-1.208,0.178
				c-1.04,0-1.85-0.297-2.428-0.891c-0.578-0.593-0.866-1.399-0.866-2.416c0-0.479,0.071-0.924,0.213-1.332
				c0.143-0.41,0.351-0.761,0.623-1.054c0.273-0.293,0.609-0.517,1.01-0.674c0.399-0.156,0.843-0.234,1.33-0.234
				c0.633,0,1.176,0.132,1.629,0.4c0.454,0.267,0.793,0.612,1.019,1.035c0.225,0.424,0.338,0.856,0.338,1.294
				c0,0.408-0.117,0.672-0.35,0.793C188.206,482.753,187.878,482.814,187.454,482.814z M184.284,481.894h2.939
				c-0.039-0.554-0.189-0.969-0.448-1.244c-0.259-0.275-0.6-0.413-1.024-0.413c-0.404,0-0.735,0.139-0.994,0.418
				C184.497,480.934,184.34,481.348,184.284,481.894z"/>
			<path style="fill:#4D4D4D;" d="M194.838,483.591c0,0.447-0.108,0.831-0.327,1.149c-0.217,0.319-0.539,0.56-0.965,0.724
				c-0.425,0.164-0.943,0.246-1.552,0.246c-0.582,0-1.08-0.089-1.496-0.267c-0.415-0.178-0.722-0.401-0.92-0.667
				c-0.198-0.268-0.297-0.535-0.297-0.805c0-0.178,0.063-0.33,0.19-0.457c0.126-0.126,0.287-0.19,0.481-0.19
				c0.17,0,0.3,0.042,0.391,0.125c0.091,0.083,0.179,0.2,0.261,0.35c0.166,0.29,0.366,0.504,0.597,0.648
				c0.231,0.142,0.547,0.214,0.947,0.214c0.325,0,0.591-0.073,0.798-0.217c0.208-0.145,0.311-0.31,0.311-0.496
				c0-0.285-0.108-0.492-0.324-0.622c-0.216-0.131-0.571-0.256-1.066-0.375c-0.558-0.138-1.012-0.284-1.362-0.436
				c-0.35-0.151-0.63-0.353-0.84-0.602c-0.21-0.25-0.315-0.557-0.315-0.921c0-0.324,0.097-0.631,0.291-0.92
				c0.194-0.288,0.48-0.519,0.858-0.691c0.377-0.173,0.833-0.259,1.368-0.259c0.42,0,0.797,0.043,1.131,0.131
				c0.335,0.086,0.614,0.204,0.837,0.35c0.224,0.146,0.394,0.308,0.51,0.486c0.117,0.178,0.175,0.352,0.175,0.523
				c0,0.186-0.062,0.338-0.186,0.457c-0.124,0.118-0.301,0.178-0.532,0.178c-0.166,0-0.308-0.048-0.424-0.143
				c-0.117-0.094-0.25-0.237-0.401-0.427c-0.123-0.158-0.266-0.285-0.433-0.38c-0.166-0.095-0.392-0.142-0.677-0.142
				c-0.293,0-0.536,0.062-0.73,0.187c-0.194,0.124-0.291,0.279-0.291,0.465c0,0.171,0.071,0.31,0.213,0.419
				c0.143,0.109,0.334,0.2,0.576,0.27c0.241,0.071,0.573,0.158,0.997,0.261c0.502,0.123,0.913,0.27,1.231,0.44
				c0.318,0.17,0.56,0.371,0.725,0.603C194.756,483.03,194.838,483.294,194.838,483.591z"/>
			<path style="fill:#4D4D4D;" d="M196.493,478.368c-0.225,0-0.418-0.07-0.579-0.208c-0.16-0.138-0.24-0.334-0.24-0.588
				c0-0.23,0.082-0.418,0.246-0.567c0.164-0.149,0.356-0.223,0.573-0.223c0.21,0,0.396,0.067,0.558,0.202
				c0.162,0.135,0.244,0.33,0.244,0.588c0,0.25-0.08,0.444-0.238,0.585C196.899,478.297,196.711,478.368,196.493,478.368z
				 M197.295,480.041v4.683c0,0.325-0.077,0.571-0.232,0.737c-0.155,0.166-0.35,0.249-0.588,0.249c-0.238,0-0.431-0.085-0.579-0.255
				c-0.149-0.17-0.222-0.414-0.222-0.73v-4.636c0-0.32,0.074-0.562,0.222-0.724c0.148-0.162,0.341-0.244,0.579-0.244
				c0.238,0,0.433,0.081,0.588,0.244C197.218,479.527,197.295,479.753,197.295,480.041z"/>
			<path style="fill:#4D4D4D;" d="M204.395,480.309v4.707c0,0.538-0.058,1.002-0.173,1.39c-0.114,0.387-0.298,0.708-0.552,0.961
				c-0.253,0.253-0.585,0.441-0.994,0.563c-0.41,0.123-0.919,0.184-1.529,0.184c-0.558,0-1.056-0.078-1.496-0.234
				c-0.439-0.157-0.777-0.358-1.015-0.605c-0.237-0.247-0.356-0.502-0.356-0.763c0-0.198,0.067-0.359,0.202-0.483
				c0.134-0.125,0.297-0.187,0.486-0.187c0.237,0,0.445,0.105,0.623,0.314c0.087,0.107,0.177,0.215,0.27,0.324
				c0.093,0.109,0.197,0.202,0.309,0.28c0.113,0.076,0.248,0.134,0.407,0.172c0.158,0.037,0.341,0.056,0.546,0.056
				c0.42,0,0.745-0.058,0.977-0.175c0.232-0.117,0.394-0.28,0.487-0.49c0.093-0.209,0.147-0.433,0.163-0.673
				c0.016-0.24,0.027-0.624,0.035-1.155c-0.25,0.349-0.537,0.615-0.864,0.797c-0.326,0.182-0.715,0.273-1.166,0.273
				c-0.542,0-1.016-0.139-1.422-0.416c-0.405-0.277-0.717-0.665-0.934-1.163c-0.218-0.499-0.326-1.074-0.326-1.727
				c0-0.487,0.066-0.927,0.198-1.318c0.133-0.393,0.322-0.723,0.567-0.992c0.245-0.269,0.528-0.472,0.849-0.608
				c0.32-0.136,0.673-0.204,1.057-0.204c0.459,0,0.857,0.089,1.193,0.264c0.336,0.177,0.649,0.453,0.938,0.829v-0.22
				c0-0.281,0.069-0.498,0.208-0.653c0.139-0.154,0.317-0.231,0.535-0.231c0.313,0,0.52,0.103,0.623,0.306
				C204.343,479.631,204.395,479.925,204.395,480.309z M199.699,482.363c0,0.657,0.143,1.154,0.43,1.49
				c0.287,0.337,0.658,0.505,1.113,0.505c0.269,0,0.523-0.073,0.762-0.217c0.24-0.145,0.435-0.362,0.585-0.653
				c0.15-0.291,0.226-0.644,0.226-1.06c0-0.66-0.145-1.175-0.436-1.543c-0.291-0.368-0.674-0.552-1.149-0.552
				c-0.463,0-0.834,0.176-1.113,0.529C199.838,481.213,199.699,481.714,199.699,482.363z"/>
			<path style="fill:#4D4D4D;" d="M206.97,480.018v0.196c0.284-0.376,0.596-0.652,0.935-0.828c0.338-0.176,0.727-0.264,1.166-0.264
				c0.428,0,0.809,0.093,1.146,0.28c0.336,0.186,0.588,0.449,0.753,0.788c0.107,0.198,0.176,0.413,0.208,0.642
				c0.032,0.23,0.048,0.522,0.048,0.879v3.015c0,0.325-0.075,0.571-0.223,0.737c-0.148,0.166-0.341,0.249-0.579,0.249
				c-0.242,0-0.437-0.085-0.588-0.255c-0.151-0.17-0.226-0.414-0.226-0.73v-2.701c0-0.534-0.074-0.943-0.223-1.226
				c-0.149-0.283-0.444-0.425-0.888-0.425c-0.288,0-0.552,0.086-0.789,0.258c-0.238,0.173-0.412,0.41-0.522,0.71
				c-0.079,0.242-0.119,0.692-0.119,1.353v2.03c0,0.328-0.077,0.576-0.228,0.74c-0.152,0.164-0.349,0.246-0.59,0.246
				c-0.234,0-0.425-0.085-0.576-0.255c-0.15-0.17-0.225-0.414-0.225-0.73v-4.683c0-0.309,0.067-0.54,0.202-0.692
				c0.135-0.152,0.319-0.228,0.552-0.228c0.143,0,0.272,0.034,0.387,0.101c0.114,0.068,0.207,0.168,0.276,0.302
				C206.935,479.659,206.97,479.824,206.97,480.018z"/>
			<path style="fill:#4D4D4D;" d="M216.829,482.814h-3.17c0.004,0.367,0.078,0.692,0.223,0.973c0.144,0.281,0.336,0.493,0.576,0.635
				c0.239,0.143,0.503,0.213,0.792,0.213c0.194,0,0.371-0.022,0.532-0.067c0.16-0.046,0.315-0.117,0.466-0.214
				c0.15-0.096,0.288-0.201,0.416-0.312c0.126-0.111,0.29-0.262,0.492-0.452c0.083-0.071,0.202-0.107,0.356-0.107
				c0.166,0,0.301,0.046,0.404,0.137c0.103,0.092,0.154,0.219,0.154,0.386c0,0.147-0.057,0.317-0.172,0.513
				c-0.115,0.196-0.288,0.384-0.52,0.564c-0.232,0.18-0.522,0.329-0.872,0.448c-0.35,0.119-0.753,0.178-1.208,0.178
				c-1.041,0-1.85-0.297-2.428-0.891c-0.577-0.593-0.866-1.399-0.866-2.416c0-0.479,0.071-0.924,0.214-1.332
				c0.143-0.41,0.351-0.761,0.624-1.054c0.273-0.293,0.609-0.517,1.009-0.674c0.399-0.156,0.843-0.234,1.33-0.234
				c0.633,0,1.175,0.132,1.629,0.4c0.454,0.267,0.793,0.612,1.019,1.035c0.225,0.424,0.339,0.856,0.339,1.294
				c0,0.408-0.117,0.672-0.35,0.793C217.581,482.753,217.253,482.814,216.829,482.814z M213.659,481.894h2.938
				c-0.039-0.554-0.189-0.969-0.448-1.244c-0.259-0.275-0.601-0.413-1.024-0.413c-0.404,0-0.736,0.139-0.995,0.418
				C213.871,480.934,213.715,481.348,213.659,481.894z"/>
			<path style="fill:#4D4D4D;" d="M223.435,484.784v-0.161c-0.218,0.249-0.432,0.452-0.644,0.608
				c-0.212,0.157-0.441,0.276-0.689,0.356c-0.247,0.082-0.517,0.122-0.81,0.122c-0.389,0-0.747-0.082-1.077-0.246
				c-0.331-0.164-0.617-0.399-0.858-0.704c-0.242-0.305-0.424-0.662-0.549-1.074c-0.125-0.412-0.187-0.857-0.187-1.335
				c0-1.013,0.247-1.804,0.742-2.369c0.495-0.565,1.146-0.848,1.953-0.848c0.467,0,0.861,0.081,1.181,0.24
				c0.32,0.16,0.633,0.408,0.938,0.739v-2.392c0-0.333,0.066-0.584,0.199-0.754c0.132-0.17,0.322-0.255,0.567-0.255
				c0.245,0,0.434,0.078,0.567,0.234c0.132,0.157,0.199,0.386,0.199,0.691v7.147c0,0.309-0.071,0.54-0.214,0.695
				c-0.142,0.154-0.326,0.231-0.552,0.231c-0.221,0-0.405-0.08-0.549-0.24C223.507,485.309,223.435,485.081,223.435,484.784z
				 M220.248,482.404c0,0.439,0.068,0.813,0.205,1.122c0.136,0.309,0.323,0.541,0.561,0.697c0.237,0.157,0.496,0.236,0.777,0.236
				c0.285,0,0.546-0.075,0.781-0.223c0.236-0.148,0.424-0.376,0.564-0.682c0.141-0.307,0.211-0.691,0.211-1.149
				c0-0.432-0.07-0.803-0.211-1.114c-0.14-0.31-0.33-0.547-0.57-0.712c-0.24-0.164-0.502-0.245-0.787-0.245
				c-0.296,0-0.562,0.084-0.795,0.252c-0.233,0.168-0.414,0.409-0.543,0.724S220.248,481.988,220.248,482.404z"/>
			<path style="fill:#4D4D4D;" d="M230.059,477.637v2.475c0.305-0.316,0.615-0.559,0.932-0.727c0.316-0.168,0.709-0.252,1.176-0.252
				c0.538,0,1.01,0.128,1.416,0.382c0.405,0.256,0.72,0.626,0.944,1.111c0.223,0.484,0.336,1.06,0.336,1.725
				c0,0.491-0.063,0.94-0.187,1.35c-0.125,0.409-0.306,0.765-0.543,1.065c-0.238,0.301-0.525,0.534-0.864,0.698
				c-0.339,0.164-0.712,0.246-1.119,0.246c-0.25,0-0.484-0.029-0.703-0.089c-0.22-0.059-0.407-0.137-0.561-0.234
				c-0.154-0.096-0.286-0.197-0.395-0.3c-0.109-0.102-0.253-0.258-0.431-0.463v0.161c0,0.305-0.073,0.535-0.22,0.692
				c-0.146,0.156-0.332,0.234-0.558,0.234c-0.23,0-0.413-0.077-0.549-0.234c-0.137-0.157-0.205-0.387-0.205-0.692v-7.076
				c0-0.328,0.066-0.577,0.198-0.745c0.133-0.168,0.318-0.252,0.555-0.252c0.25,0,0.441,0.08,0.576,0.24
				C229.992,477.112,230.059,477.34,230.059,477.637z M230.136,482.452c0,0.645,0.147,1.14,0.442,1.486
				c0.295,0.347,0.682,0.521,1.161,0.521c0.407,0,0.759-0.177,1.053-0.532c0.295-0.355,0.442-0.862,0.442-1.523
				c0-0.427-0.061-0.796-0.184-1.104c-0.123-0.309-0.297-0.547-0.522-0.715c-0.226-0.168-0.489-0.252-0.79-0.252
				c-0.309,0-0.584,0.084-0.825,0.252c-0.241,0.168-0.431,0.411-0.57,0.73C230.205,481.633,230.136,482.012,230.136,482.452z"/>
			<path style="fill:#4D4D4D;" d="M236.963,485.912l0.148-0.363l-1.995-5.022c-0.122-0.288-0.184-0.499-0.184-0.629
				c0-0.139,0.036-0.267,0.107-0.385c0.071-0.119,0.169-0.214,0.294-0.285c0.125-0.072,0.255-0.107,0.389-0.107
				c0.233,0,0.409,0.074,0.529,0.223c0.119,0.148,0.223,0.361,0.314,0.638l1.371,3.989l1.3-3.71c0.103-0.3,0.196-0.536,0.279-0.706
				c0.083-0.17,0.171-0.285,0.264-0.344c0.093-0.06,0.225-0.09,0.395-0.09c0.123,0,0.24,0.032,0.353,0.098
				c0.113,0.065,0.2,0.153,0.261,0.264c0.061,0.111,0.092,0.227,0.092,0.35c-0.016,0.075-0.042,0.182-0.077,0.321
				c-0.036,0.138-0.079,0.28-0.13,0.421l-2.113,5.533c-0.183,0.486-0.36,0.868-0.535,1.145c-0.174,0.277-0.404,0.491-0.691,0.638
				c-0.287,0.149-0.674,0.223-1.161,0.223c-0.475,0-0.831-0.051-1.068-0.154c-0.238-0.104-0.357-0.292-0.357-0.564
				c0-0.186,0.056-0.33,0.169-0.43c0.112-0.101,0.28-0.152,0.501-0.152c0.087,0,0.173,0.012,0.256,0.037
				c0.103,0.023,0.192,0.035,0.267,0.035c0.186,0,0.333-0.027,0.44-0.084c0.107-0.055,0.202-0.151,0.288-0.288
				C236.753,486.379,236.852,486.177,236.963,485.912z"/>
		</g>
		<g>
			<path style="fill:#4D4D4D;" d="M260.439,479.261h0.386v-0.487c0-0.509,0.062-0.911,0.192-1.211
				c0.128-0.299,0.347-0.516,0.654-0.653c0.306-0.135,0.727-0.204,1.26-0.204c0.95,0,1.42,0.229,1.42,0.697
				c0,0.149-0.049,0.278-0.15,0.384c-0.096,0.106-0.214,0.16-0.348,0.16c-0.062,0-0.174-0.012-0.33-0.037
				c-0.148-0.021-0.283-0.035-0.389-0.035c-0.292,0-0.479,0.088-0.566,0.259c-0.079,0.172-0.122,0.418-0.122,0.74v0.386h0.395
				c0.62,0,0.926,0.185,0.926,0.56c0,0.262-0.079,0.431-0.245,0.503c-0.164,0.071-0.39,0.107-0.681,0.107h-0.395v4.294
				c0,0.319-0.075,0.563-0.231,0.73c-0.151,0.17-0.346,0.254-0.589,0.254c-0.23,0-0.419-0.084-0.574-0.254
				c-0.153-0.167-0.228-0.411-0.228-0.73v-4.294h-0.446c-0.243,0-0.427-0.052-0.558-0.164c-0.131-0.107-0.197-0.25-0.197-0.424
				C259.624,479.454,259.896,479.261,260.439,479.261"/>
			<path style="fill:#4D4D4D;" d="M265.745,483.37v1.355c0,0.327-0.083,0.574-0.234,0.737c-0.154,0.166-0.349,0.247-0.586,0.247
				c-0.239,0-0.43-0.082-0.579-0.25c-0.148-0.165-0.225-0.41-0.225-0.734v-4.514c0-0.729,0.262-1.093,0.788-1.093
				c0.271,0,0.465,0.084,0.583,0.255c0.118,0.171,0.184,0.421,0.198,0.755c0.192-0.334,0.39-0.584,0.593-0.755
				c0.207-0.171,0.477-0.255,0.818-0.255c0.343,0,0.67,0.084,0.991,0.255c0.322,0.171,0.482,0.398,0.482,0.678
				c0,0.197-0.069,0.362-0.204,0.488c-0.137,0.131-0.284,0.195-0.441,0.195c-0.062,0-0.207-0.039-0.433-0.112
				c-0.228-0.071-0.43-0.108-0.602-0.108c-0.237,0-0.433,0.064-0.582,0.186c-0.151,0.128-0.269,0.311-0.353,0.554
				c-0.081,0.247-0.137,0.541-0.17,0.878C265.759,482.471,265.745,482.884,265.745,483.37"/>
			<path style="fill:#4D4D4D;" d="M273.196,482.812h-3.171c0.005,0.367,0.078,0.694,0.222,0.974
				c0.147,0.279,0.338,0.491,0.578,0.635c0.24,0.142,0.502,0.212,0.793,0.212c0.194,0,0.37-0.021,0.531-0.07
				c0.159-0.043,0.316-0.116,0.466-0.213c0.151-0.095,0.287-0.199,0.415-0.313c0.126-0.109,0.292-0.26,0.494-0.449
				c0.084-0.071,0.203-0.109,0.355-0.109c0.168,0,0.301,0.046,0.406,0.138c0.104,0.092,0.152,0.219,0.152,0.386
				c0,0.147-0.056,0.317-0.167,0.512c-0.117,0.198-0.289,0.385-0.522,0.566c-0.234,0.178-0.524,0.329-0.874,0.446
				c-0.35,0.119-0.754,0.179-1.207,0.179c-1.044,0-1.853-0.296-2.429-0.889c-0.577-0.595-0.87-1.401-0.87-2.418
				c0-0.479,0.073-0.924,0.217-1.334c0.14-0.411,0.349-0.76,0.624-1.055c0.272-0.294,0.606-0.518,1.008-0.674
				c0.399-0.156,0.842-0.234,1.33-0.234c0.632,0,1.176,0.134,1.629,0.403c0.452,0.264,0.796,0.61,1.018,1.034
				c0.226,0.426,0.339,0.855,0.339,1.296c0,0.405-0.118,0.669-0.351,0.791C273.947,482.752,273.619,482.812,273.196,482.812
				 M270.024,481.891h2.938c-0.039-0.553-0.186-0.969-0.446-1.241c-0.261-0.277-0.599-0.413-1.025-0.413
				c-0.403,0-0.736,0.137-0.995,0.418C270.237,480.934,270.079,481.345,270.024,481.891"/>
			<path style="fill:#4D4D4D;" d="M279.938,482.812h-3.171c0.004,0.367,0.078,0.694,0.222,0.974
				c0.145,0.279,0.337,0.491,0.576,0.635c0.239,0.142,0.504,0.212,0.795,0.212c0.192,0,0.37-0.021,0.528-0.07
				c0.162-0.043,0.316-0.116,0.469-0.213c0.151-0.095,0.287-0.199,0.415-0.313c0.125-0.109,0.29-0.26,0.493-0.449
				c0.084-0.071,0.204-0.109,0.355-0.109c0.168,0,0.302,0.046,0.406,0.138c0.103,0.092,0.15,0.219,0.15,0.386
				c0,0.147-0.054,0.317-0.171,0.512c-0.111,0.198-0.285,0.385-0.519,0.566c-0.231,0.178-0.525,0.329-0.872,0.446
				c-0.349,0.119-0.755,0.179-1.209,0.179c-1.042,0-1.849-0.296-2.429-0.889c-0.577-0.595-0.868-1.401-0.868-2.418
				c0-0.479,0.073-0.924,0.217-1.334c0.142-0.411,0.349-0.76,0.623-1.055c0.272-0.294,0.608-0.518,1.009-0.674
				c0.398-0.156,0.844-0.234,1.331-0.234c0.63,0,1.174,0.134,1.633,0.403c0.45,0.264,0.791,0.61,1.013,1.034
				c0.225,0.426,0.341,0.855,0.341,1.296c0,0.405-0.12,0.669-0.351,0.791C280.688,482.752,280.36,482.812,279.938,482.812
				 M276.767,481.891h2.938c-0.04-0.553-0.19-0.969-0.447-1.241c-0.263-0.277-0.601-0.413-1.027-0.413
				c-0.403,0-0.735,0.137-0.995,0.418C276.978,480.934,276.819,481.345,276.767,481.891"/>
			<path style="fill:#4D4D4D;" d="M283.487,480.03v0.194c0.304-0.375,0.621-0.651,0.953-0.828c0.324-0.178,0.699-0.267,1.114-0.267
				c0.497,0,0.959,0.13,1.379,0.386c0.419,0.259,0.749,0.635,0.993,1.129c0.244,0.497,0.366,1.081,0.366,1.758
				c0,0.497-0.07,0.957-0.21,1.376c-0.14,0.418-0.336,0.767-0.581,1.05c-0.246,0.281-0.535,0.501-0.868,0.654
				c-0.339,0.151-0.695,0.227-1.08,0.227c-0.461,0-0.853-0.093-1.166-0.28c-0.314-0.182-0.614-0.458-0.901-0.816v2.433
				c0,0.71-0.26,1.069-0.778,1.069c-0.306,0-0.505-0.092-0.607-0.275c-0.095-0.187-0.146-0.452-0.146-0.807v-6.996
				c0-0.309,0.066-0.537,0.2-0.692c0.134-0.15,0.32-0.228,0.553-0.228c0.231,0,0.416,0.078,0.56,0.234
				C283.417,479.51,283.487,479.733,283.487,480.03 M286.665,482.384c0-0.428-0.067-0.796-0.197-1.102
				c-0.131-0.308-0.312-0.542-0.541-0.705c-0.23-0.164-0.489-0.248-0.77-0.248c-0.446,0-0.824,0.178-1.13,0.527
				c-0.308,0.354-0.462,0.872-0.462,1.558c0,0.641,0.153,1.146,0.46,1.504c0.305,0.358,0.679,0.536,1.133,0.536
				c0.268,0,0.519-0.079,0.748-0.233c0.232-0.158,0.416-0.392,0.552-0.704C286.595,483.206,286.665,482.827,286.665,482.384"/>
			<path style="fill:#4D4D4D;" d="M289.925,478.363c-0.226,0-0.418-0.071-0.577-0.209c-0.162-0.139-0.242-0.333-0.242-0.585
				c0-0.23,0.082-0.419,0.248-0.569c0.164-0.146,0.354-0.222,0.571-0.222c0.212,0,0.397,0.066,0.559,0.2
				c0.162,0.137,0.244,0.334,0.244,0.591c0,0.25-0.079,0.444-0.236,0.585C290.332,478.292,290.145,478.363,289.925,478.363
				 M290.727,480.038v4.689c0,0.322-0.077,0.568-0.231,0.732c-0.156,0.169-0.35,0.25-0.588,0.25c-0.238,0-0.428-0.084-0.58-0.254
				c-0.146-0.173-0.222-0.416-0.222-0.729v-4.642c0-0.319,0.076-0.559,0.222-0.721c0.152-0.165,0.342-0.245,0.58-0.245
				c0.238,0,0.432,0.079,0.588,0.245C290.65,479.525,290.727,479.751,290.727,480.038"/>
			<path style="fill:#4D4D4D;" d="M295.952,484.969l-1.428-2.353l-0.88,0.83v1.291c0,0.312-0.083,0.551-0.248,0.718
				c-0.16,0.17-0.354,0.254-0.566,0.254c-0.249,0-0.447-0.082-0.588-0.25c-0.142-0.165-0.215-0.41-0.215-0.734v-6.915
				c0-0.358,0.071-0.632,0.207-0.821c0.139-0.19,0.341-0.283,0.596-0.283c0.25,0,0.446,0.086,0.593,0.257
				c0.146,0.169,0.221,0.421,0.221,0.751v3.933l1.823-1.914c0.227-0.235,0.396-0.4,0.517-0.486c0.118-0.087,0.262-0.13,0.431-0.13
				c0.204,0,0.371,0.065,0.51,0.193c0.132,0.129,0.2,0.291,0.2,0.483c0,0.237-0.221,0.556-0.659,0.951l-0.861,0.789l1.662,2.614
				c0.121,0.196,0.212,0.34,0.265,0.441c0.053,0.1,0.081,0.2,0.081,0.289c0,0.258-0.071,0.459-0.213,0.61
				c-0.14,0.148-0.327,0.221-0.554,0.221c-0.198,0-0.352-0.051-0.458-0.16C296.282,485.441,296.133,485.247,295.952,484.969"/>
			<path style="fill:#4D4D4D;" d="M299.474,485.709c-0.245,0-0.455-0.079-0.634-0.238c-0.178-0.156-0.268-0.378-0.268-0.665
				c0-0.241,0.086-0.449,0.256-0.622c0.172-0.175,0.38-0.262,0.63-0.262c0.248,0,0.46,0.087,0.639,0.258
				c0.174,0.172,0.264,0.383,0.264,0.626c0,0.283-0.089,0.505-0.264,0.662C299.919,485.63,299.711,485.709,299.474,485.709"/>
			<path style="fill:#4D4D4D;" d="M307.536,483.703c0,0.2-0.06,0.417-0.182,0.646c-0.12,0.231-0.305,0.449-0.553,0.656
				c-0.247,0.207-0.557,0.377-0.935,0.502c-0.375,0.126-0.8,0.192-1.269,0.192c-1.004,0-1.787-0.294-2.349-0.876
				c-0.56-0.585-0.841-1.368-0.841-2.35c0-0.667,0.128-1.254,0.387-1.765c0.255-0.509,0.628-0.905,1.113-1.184
				c0.487-0.28,1.072-0.419,1.746-0.419c0.421,0,0.805,0.061,1.158,0.184c0.35,0.122,0.645,0.282,0.89,0.474
				c0.242,0.197,0.429,0.402,0.556,0.62c0.129,0.22,0.192,0.425,0.192,0.617c0,0.192-0.071,0.357-0.214,0.492
				c-0.147,0.134-0.322,0.203-0.524,0.203c-0.137,0-0.249-0.035-0.338-0.104c-0.09-0.07-0.19-0.181-0.299-0.339
				c-0.198-0.299-0.404-0.526-0.623-0.674c-0.214-0.152-0.488-0.226-0.821-0.226c-0.476,0-0.865,0.186-1.159,0.561
				c-0.292,0.372-0.439,0.887-0.439,1.534c0,0.305,0.039,0.587,0.114,0.842c0.073,0.255,0.182,0.472,0.325,0.652
				c0.144,0.179,0.315,0.316,0.516,0.409c0.203,0.096,0.425,0.141,0.665,0.141c0.326,0,0.604-0.075,0.836-0.225
				c0.235-0.151,0.439-0.38,0.616-0.689c0.099-0.182,0.204-0.323,0.318-0.427c0.114-0.102,0.256-0.156,0.422-0.156
				c0.198,0,0.363,0.077,0.491,0.226C307.469,483.372,307.536,483.534,307.536,483.703"/>
			<path style="fill:#4D4D4D;" d="M314.53,482.415c0,0.481-0.076,0.928-0.222,1.337c-0.155,0.408-0.37,0.758-0.656,1.049
				c-0.285,0.293-0.626,0.518-1.02,0.675c-0.4,0.154-0.844,0.234-1.337,0.234c-0.491,0-0.933-0.08-1.326-0.239
				c-0.389-0.156-0.732-0.384-1.016-0.676c-0.288-0.298-0.505-0.646-0.657-1.048c-0.143-0.402-0.219-0.847-0.219-1.332
				c0-0.491,0.078-0.941,0.224-1.349c0.151-0.409,0.368-0.758,0.649-1.046c0.282-0.289,0.621-0.511,1.019-0.669
				c0.402-0.156,0.844-0.234,1.326-0.234c0.49,0,0.936,0.078,1.337,0.239c0.398,0.157,0.739,0.384,1.027,0.674
				c0.286,0.297,0.502,0.643,0.65,1.045C314.455,481.483,314.53,481.926,314.53,482.415 M312.903,482.415
				c0-0.662-0.146-1.176-0.436-1.543c-0.289-0.372-0.681-0.555-1.171-0.555c-0.317,0-0.597,0.082-0.839,0.246
				c-0.242,0.164-0.425,0.406-0.556,0.728c-0.131,0.321-0.197,0.696-0.197,1.124c0,0.424,0.064,0.792,0.193,1.108
				c0.13,0.319,0.314,0.561,0.554,0.729c0.241,0.167,0.522,0.253,0.845,0.253c0.49,0,0.882-0.185,1.171-0.557
				C312.756,483.578,312.903,483.066,312.903,482.415"/>
			<path style="fill:#4D4D4D;" d="M320.712,482.534v2.154c0,0.342-0.075,0.594-0.231,0.767c-0.156,0.17-0.357,0.255-0.611,0.255
				c-0.245,0-0.446-0.085-0.594-0.255c-0.154-0.173-0.233-0.425-0.233-0.767v-2.582c0-0.408-0.013-0.726-0.04-0.953
				c-0.029-0.221-0.105-0.41-0.227-0.552c-0.123-0.147-0.318-0.22-0.582-0.22c-0.532,0-0.879,0.181-1.048,0.551
				c-0.167,0.36-0.254,0.883-0.254,1.567v2.189c0,0.336-0.076,0.591-0.226,0.765c-0.156,0.171-0.355,0.258-0.603,0.258
				c-0.247,0-0.448-0.087-0.604-0.258c-0.157-0.173-0.235-0.428-0.235-0.765v-4.637c0-0.306,0.07-0.538,0.209-0.695
				c0.143-0.16,0.329-0.239,0.556-0.239c0.223,0,0.407,0.077,0.557,0.222c0.148,0.149,0.221,0.354,0.221,0.615v0.153
				c0.283-0.334,0.584-0.582,0.903-0.738c0.323-0.162,0.676-0.241,1.07-0.241c0.407,0,0.757,0.082,1.049,0.243
				c0.294,0.163,0.533,0.409,0.725,0.735c0.275-0.33,0.568-0.577,0.881-0.738c0.313-0.161,0.658-0.241,1.039-0.241
				c0.441,0,0.826,0.089,1.146,0.262c0.319,0.174,0.558,0.425,0.717,0.747c0.138,0.295,0.206,0.756,0.206,1.385v3.164
				c0,0.342-0.076,0.594-0.23,0.767c-0.154,0.17-0.359,0.255-0.612,0.255c-0.247,0-0.446-0.087-0.603-0.258
				c-0.156-0.173-0.235-0.428-0.235-0.765v-2.726c0-0.349-0.015-0.627-0.043-0.836c-0.029-0.211-0.11-0.388-0.239-0.529
				c-0.133-0.142-0.331-0.215-0.596-0.215c-0.214,0-0.416,0.066-0.609,0.192c-0.192,0.124-0.342,0.298-0.45,0.508
				C320.774,481.356,320.712,481.84,320.712,482.534"/>
		</g>
		<g>
			<path style="fill:#4D4D4D;" d="M245.272,482.023c-0.001-0.003-0.001-0.006-0.001-0.011
				C245.271,482.017,245.271,482.02,245.272,482.023z"/>
			<path style="fill:#4D4D4D;" d="M245.354,482.541c0.001,0,0.001,0,0.001,0c-0.031-0.148-0.055-0.294-0.074-0.439
				C245.3,482.248,245.324,482.395,245.354,482.541z"/>
			<path style="fill:#4D4D4D;" d="M245.89,484.045c-0.004-0.006-0.007-0.013-0.011-0.021
				C245.883,484.031,245.886,484.039,245.89,484.045z"/>
			<path style="fill:#4D4D4D;" d="M245.839,483.945c-0.014-0.027-0.027-0.056-0.041-0.084
				C245.811,483.89,245.825,483.917,245.839,483.945z"/>
			<path style="fill:#4D4D4D;" d="M245.504,483.12c0.079,0.25,0.175,0.493,0.286,0.724c-0.113-0.236-0.206-0.479-0.283-0.724
				C245.507,483.12,245.505,483.12,245.504,483.12z"/>
			<path style="fill:#4D4D4D;" d="M251.545,475.812c0.313,0,0.545,0.025,0.809,0.07l0.075-0.477c0,0-0.732-0.225-1.694-0.147
				l-0.076-0.259c0.299-0.063,0.524-0.329,0.524-0.646c0-0.364-0.296-0.659-0.661-0.659c-0.364,0-0.66,0.295-0.66,0.659
				c0,0.317,0.224,0.583,0.523,0.646l0.084,0.289c-1.021,0.14-1.835,0.539-1.835,0.539l0.144,0.441
				c0.618-0.206,1.154-0.331,1.64-0.383C250.895,475.834,251.253,475.812,251.545,475.812z"/>
			<path style="fill:#4D4D4D;" d="M245.878,478.224l0.004-0.005c0.024-0.031,0.047-0.06,0.071-0.089l-0.196-0.141l-0.305-0.223
				c-0.017,0.024-0.497,0.465-0.876,1.28c-0.016-0.026-0.035-0.051-0.056-0.074c-0.114-0.124-0.272-0.187-0.474-0.184
				c-0.003,0-0.006,0-0.009,0c-0.125,0-0.211-0.042-0.267-0.092c0.056-0.071,0.089-0.16,0.089-0.258c0-0.23-0.187-0.418-0.418-0.418
				c-0.23,0-0.418,0.188-0.418,0.418c0,0.231,0.187,0.418,0.418,0.418c0.036,0,0.071-0.006,0.104-0.013
				c0.103,0.114,0.266,0.214,0.505,0.209c0.123-0.001,0.213,0.031,0.273,0.097c0.069,0.076,0.093,0.185,0.1,0.267
				c-0.001,0.001-0.001,0.003-0.002,0.003c-0.272,0.743-0.194,1.669-0.194,1.669l0.661,0.026c0.013-0.337,0.062-0.927,0.232-1.394
				C245.449,478.814,245.861,478.248,245.878,478.224z"/>
			<path style="fill:#4D4D4D;" d="M257.295,476.365c-0.23,0-0.418,0.187-0.418,0.418c0,0.036,0.006,0.07,0.015,0.103
				c-0.115,0.104-0.214,0.267-0.211,0.507c0.002,0.123-0.03,0.212-0.096,0.273c-0.053,0.047-0.12,0.072-0.185,0.088
				c-0.492-0.689-1.098-1.11-1.098-1.11l-0.474,0.509c0.358,0.326,0.725,0.734,1.08,1.244c0.246,0.352,0.499,0.806,0.71,1.259
				l0.64-0.304c0,0-0.292-0.722-0.704-1.37c0.071-0.025,0.143-0.064,0.207-0.12c0.125-0.113,0.187-0.273,0.183-0.474
				c-0.001-0.13,0.042-0.218,0.093-0.276c0.071,0.054,0.16,0.089,0.258,0.089c0.232,0,0.419-0.187,0.419-0.418
				C257.714,476.551,257.527,476.365,257.295,476.365z"/>
			<path style="fill:#4D4D4D;" d="M255.634,482.116c-0.881,0.429-2.33,0.996-4.238,1.262c-0.749,0.104-1.475,0.142-2.143,0.142
				c-0.869,0-1.637-0.065-2.227-0.139c-0.673-0.085-1.198-0.189-1.52-0.261c0.077,0.245,0.171,0.488,0.283,0.724
				c0.002,0.006,0.005,0.013,0.008,0.017c0.013,0.027,0.027,0.056,0.041,0.084c0.014,0.027,0.027,0.054,0.041,0.079
				c0.004,0.007,0.007,0.015,0.011,0.021c0.189,0.357,0.417,0.684,0.675,0.968c0.9,0.984,1.817,1.14,1.826,1.141l0.014,0.002
				l0.014,0.005c0.008,0.003,0.821,0.266,2.057,0.266c1.216,0,2.409-0.245,3.546-0.729c0.842-0.431,1.639-1.085,2.034-1.669
				c0.305-0.452,0.526-0.933,0.656-1.434c0.069-0.266,0.124-0.692,0.092-1.141C256.556,481.62,256.164,481.858,255.634,482.116z"/>
			<path style="fill:#4D4D4D;" d="M246.161,478.433c-0.026,0.037-0.408,0.578-0.71,1.408c-0.226,0.622-0.216,1.527-0.216,1.538
				v0.002c0,0.212,0.012,0.423,0.035,0.632c0,0.005,0,0.008,0.001,0.011c0.003,0.027,0.007,0.052,0.01,0.079
				c0.019,0.145,0.043,0.291,0.074,0.439c0.438,0.111,3.049,0.72,5.968,0.314c1.829-0.254,3.218-0.795,4.062-1.204
				c0.701-0.34,1.151-0.648,1.325-0.774c-0.173-0.643-0.651-1.65-1.089-2.279c-1.253-1.791-2.604-2.25-3.298-2.365
				c-0.265-0.043-0.477-0.068-0.777-0.068c-0.279,0-0.626,0.023-1.089,0.071c-0.465,0.048-0.982,0.17-1.583,0.372
				c-0.842,0.282-1.605,0.725-2.204,1.28l-0.02,0.019C246.56,477.989,246.374,478.161,246.161,478.433z M253.829,478.016
				c0.6,0,1.089,0.488,1.089,1.09c0,0.601-0.489,1.09-1.089,1.09c-0.601,0-1.089-0.489-1.089-1.09
				C252.74,478.504,253.228,478.016,253.829,478.016z M248.678,477.972c0.973,0,1.761,0.788,1.761,1.761
				c0,0.972-0.788,1.759-1.761,1.759c-0.972,0-1.76-0.787-1.76-1.759C246.918,478.761,247.706,477.972,248.678,477.972z"/>
		</g>
	</g>
</g>
</svg>
