<svg width="67" height="52" viewBox="0 0 67 52" fill="none" xmlns="http://www.w3.org/2000/svg">
<path d="M66.0226 34.6368C65.7866 34.6368 65.6686 34.4008 65.9046 34.1648V33.9288C65.7866 33.8108 65.6686 33.6928 65.5506 33.6928L65.4326 33.5748C65.4326 33.5748 65.3146 33.4568 65.1966 33.4568C65.0786 33.4568 64.9606 33.3388 64.9606 33.3388C64.8426 33.2208 64.8427 33.1029 64.7247 33.1029C64.6067 32.9849 64.4887 32.8669 64.4887 32.6309L64.3707 32.5129C64.1347 32.5129 64.0167 32.3949 64.0167 32.2769C64.0167 32.1589 63.8987 32.1589 63.7807 32.1589C63.6627 32.0409 63.5447 32.0409 63.4267 31.9229C63.1907 31.8049 62.9548 31.6869 62.8368 31.5689C62.7188 31.4509 62.4828 31.4509 62.3648 31.4509C62.2468 31.3329 62.2468 31.333 62.1288 31.333C62.0108 31.333 61.7748 31.3329 61.6568 31.215C61.4208 31.097 61.3029 30.979 61.0669 30.979C60.9489 30.979 60.9489 30.979 60.8309 30.861C60.7129 30.861 60.5949 30.743 60.4769 30.743C60.2409 30.743 60.005 30.507 59.769 30.625C59.651 30.625 59.415 30.507 59.297 30.389C59.061 30.271 59.061 30.389 59.061 30.507C59.061 30.625 58.943 30.743 58.943 30.861C58.943 30.861 58.943 30.861 58.825 30.861C58.825 30.743 58.943 30.625 58.943 30.507C58.943 30.389 58.943 30.389 58.943 30.271C58.943 30.271 58.825 30.271 58.825 30.389C58.825 30.389 58.707 30.507 58.707 30.389C58.589 30.271 58.589 30.035 58.707 29.917C58.825 29.6811 59.061 29.5631 59.179 29.3271C59.297 29.0911 59.5329 28.8551 59.6509 28.5011C59.6509 28.3831 59.6509 28.2651 59.6509 28.1471C59.6509 28.0292 59.6509 27.9112 59.6509 27.6752C59.6509 27.7932 59.651 27.9112 59.769 28.0291C59.887 27.9112 59.8869 27.7932 59.8869 27.6752C59.8869 27.4392 59.887 27.3212 60.005 27.0852C60.005 26.9672 60.2409 26.8492 60.2409 26.6132C60.3589 26.3772 60.3589 26.1413 60.4769 25.9053C60.4769 25.6693 60.4769 25.4333 60.7129 25.3153C60.7129 24.9613 60.8309 24.7253 61.0669 24.4894C61.1849 24.3714 61.1849 24.3714 60.9489 24.2534C60.7129 24.1354 60.7129 23.8994 60.8309 23.7814C60.9489 23.5454 60.9489 23.4274 60.9489 23.1914C60.9489 22.9554 60.9489 22.7195 60.9489 22.6015C60.9489 22.4835 60.9489 22.3655 60.9489 22.3655C60.8309 22.1295 60.7129 21.8935 60.7129 21.6575C60.7129 21.5395 60.7129 21.4215 60.7129 21.4215C60.7129 21.1855 60.8309 21.0676 60.8309 20.8316C60.8309 20.4776 60.8309 20.1236 60.8309 19.8876C60.8309 19.5337 60.8309 19.0617 60.8309 18.7077C60.8309 18.3537 60.7129 18.1177 60.7129 17.7638C60.7129 17.2918 60.5949 16.9378 60.4769 16.4658C60.4769 16.3478 60.4769 16.1119 60.5949 15.9939V15.7579C60.241 15.4039 60.1229 14.9319 59.8869 14.4599C59.8869 14.4599 59.8869 14.4599 59.8869 14.3419L59.6509 13.516C59.6509 13.516 59.6509 13.516 59.6509 13.398C59.4149 13.044 59.061 12.6901 58.825 12.4541C58.707 12.3361 58.589 12.2181 58.471 12.3361C58.471 12.2181 58.471 12.1001 58.471 11.9821C58.471 11.8641 57.999 11.6281 57.881 11.6281C57.5271 11.6281 57.2911 11.5101 57.0551 11.2741C56.8192 10.9202 56.4651 10.6842 56.1111 10.4482C55.8752 10.3302 55.6392 10.3302 55.5212 10.4482C55.4032 10.5662 55.2852 10.5662 55.1672 10.4482C54.9312 10.2122 54.6952 9.97621 54.3412 9.74023C53.9873 9.50424 53.5153 9.26825 53.0434 9.03226H52.9254C52.6894 9.03226 52.4534 9.03227 52.3354 8.91428C52.3354 8.91428 52.3354 8.91428 52.2174 8.91428C52.0994 8.91428 51.8635 8.91427 51.7455 8.79628C51.3915 8.67828 51.2735 8.67828 51.1555 9.03226H50.8015C50.8015 9.15025 50.9195 9.26825 50.9195 9.38624C51.2735 9.62223 51.3914 9.9762 51.6274 10.2122C51.7454 10.3302 51.8634 10.6842 51.8634 10.8022C51.8634 10.9201 51.8634 11.1561 51.9814 11.2741C51.9814 11.2741 52.0994 11.3921 51.9814 11.5101C51.8634 11.7461 52.0994 11.9821 52.2174 12.1001C52.3354 12.3361 52.5714 12.4541 52.4534 12.6901C52.4534 12.808 52.4534 12.926 52.4534 13.044C52.5714 13.28 52.5714 13.634 52.6894 13.87L52.8074 14.3419C52.9253 14.4599 52.9254 14.5779 52.9254 14.6959C52.9254 14.8139 52.9254 15.0499 52.9254 15.2859C53.0434 15.9939 53.0434 16.7018 52.9254 17.4098C52.9254 17.5278 52.9254 17.5278 52.9254 17.6458C52.9254 17.7637 52.9254 17.8818 52.9254 18.1177C52.9254 18.2357 52.8074 18.4717 52.8074 18.5897C52.8074 18.8257 52.9254 19.0617 52.6894 19.1797V19.2977C52.5714 19.6516 52.6894 20.1236 52.4534 20.3596C52.4534 20.5956 52.3354 20.8316 52.3354 20.9496C52.2174 20.9496 52.0994 20.9496 52.0994 20.9496C52.3354 20.9496 52.3354 21.0676 52.3354 21.1855C52.2174 21.4215 52.2174 21.5395 52.0994 21.7755C51.9814 22.0115 51.9814 22.1295 51.9814 22.3655C51.8634 22.4835 51.8634 22.7195 51.6274 22.8375C51.6274 22.8375 51.6275 22.9554 51.5095 22.9554C51.5095 23.0734 51.3914 23.3094 51.3914 23.4274C51.3914 23.5454 51.1555 23.5454 51.1555 23.6634C51.0375 24.0174 50.8015 24.1354 50.4475 24.3714C50.2115 24.4893 49.9756 24.4894 49.9756 24.1354C49.9756 24.1354 49.9755 24.0174 49.8575 24.0174C49.8575 24.0174 49.7395 23.8994 49.6215 23.8994C49.3855 23.7814 49.3856 23.4274 49.1496 23.4274C49.1496 23.4274 49.1496 23.4274 49.1496 23.3094C49.1496 23.1914 49.1496 23.1914 49.0316 23.0734C48.6776 22.8375 48.4416 22.4835 48.0876 22.3655C47.9696 22.2475 47.8517 22.1295 47.7337 22.1295L47.6157 22.0115C47.3797 22.0115 47.1437 21.7755 46.9077 21.5395C46.7897 21.4215 46.6717 21.4215 46.5537 21.6575C46.5537 21.7755 46.4358 21.8935 46.4358 21.8935C46.0818 21.5395 45.9638 21.5395 45.7278 21.5395C45.6098 21.5395 45.4918 21.5395 45.3738 21.6575C45.1378 21.6575 45.0198 21.7755 45.1378 22.0115C45.2558 22.2475 45.2558 22.4835 45.2558 22.7195V22.8375C45.3738 23.0734 45.3738 23.4274 45.4918 23.6634C45.4918 23.7814 45.6098 23.8994 45.6098 24.0174C45.6098 24.1354 45.6098 24.1354 45.6098 24.2534C45.4918 24.4894 45.4918 24.6074 45.6098 24.8433C45.7278 24.8433 45.7278 24.9613 45.7278 25.0793C45.7278 25.3153 45.7278 25.4333 45.9638 25.5513C46.1998 25.7873 46.1997 26.0233 46.0817 26.2593C45.9637 26.6132 45.9638 27.0852 45.9638 27.5572C45.9638 27.7932 45.9638 28.1471 45.9638 28.3831C45.9638 28.5011 45.8458 28.6191 45.8458 28.7371C45.7278 28.9731 45.7278 29.2091 45.6098 29.5631C45.6098 29.6811 45.6098 29.799 45.6098 29.799C45.4918 30.035 45.4918 30.271 45.3738 30.507C45.2558 30.979 45.1378 31.5689 45.0198 32.0409C44.9018 32.3949 44.9018 32.7489 44.5478 32.8669L44.4299 32.9849C44.3119 33.1028 44.1939 33.1028 44.0759 33.2208C44.0759 33.2208 43.9579 33.2208 43.8399 33.2208C43.8399 33.2208 43.8399 33.1028 43.8399 32.9849C43.8399 32.8669 43.9579 32.7489 43.8399 32.6309C43.8399 32.6309 43.8399 32.6309 43.8399 32.5129C43.7219 32.3949 43.7219 32.2769 43.6039 32.1589L43.4859 32.0409C43.368 31.8049 43.1319 31.4509 43.0139 31.215C42.778 30.861 42.306 30.625 41.834 30.389C41.834 30.271 41.834 30.153 41.716 30.153C41.5981 30.035 41.48 30.035 41.362 30.035C40.89 29.917 40.3001 29.7991 39.8281 29.3271C39.7101 29.2091 39.4741 29.2091 39.2382 29.0911C39.0022 29.3271 39.0022 29.4451 39.3562 29.5631C39.4742 29.5631 39.4741 29.681 39.5921 29.681C39.7101 29.799 39.7101 30.035 39.5921 30.035C39.3561 30.035 39.3562 30.153 39.3562 30.271C39.3562 30.625 39.4742 30.861 39.4742 31.215C39.4742 31.8049 39.7101 32.2769 39.4742 32.8669C39.4742 32.9849 39.4742 32.9849 39.4742 33.1029C39.4742 33.3388 39.3561 33.5748 39.2382 33.8108C39.2382 33.9288 39.1202 34.0468 39.1202 34.0468C39.1202 34.2828 39.0022 34.5188 38.7662 34.6368C38.6482 34.7548 38.5302 34.7547 38.6482 34.9907C38.6482 34.9907 38.6482 35.1087 38.5302 35.1087C38.4122 35.2267 38.4122 35.2267 38.2942 35.3447C38.1762 35.6987 37.9402 35.8167 37.7043 35.9347C37.5863 36.0527 37.4683 36.0527 37.4683 36.1707C37.2323 36.5246 36.9963 36.8786 36.5243 36.9966C36.4063 37.1146 36.2884 37.1146 36.4064 37.3506C36.5244 37.4686 36.5243 37.5866 36.5243 37.7046C36.5243 37.9406 36.5243 38.0585 36.7603 37.9406C36.9963 37.8226 37.1143 37.8226 37.3503 37.9406C37.4683 37.9406 37.5863 38.0586 37.7043 38.1766C38.0582 38.2946 38.5302 38.4125 38.5302 38.8845C38.5302 38.8845 38.6482 39.0025 38.7662 39.0025C39.0022 38.8845 39.2382 38.8845 39.4742 38.8845C39.4742 38.8845 39.4741 38.8845 39.5921 38.8845C39.7101 38.7665 39.9461 38.7665 40.0641 38.5305C40.0641 38.5305 40.1821 38.4125 40.3001 38.4125C40.3001 38.6485 40.5361 38.6485 40.772 38.6485C40.89 38.6485 41.1261 38.5305 41.244 38.6485H41.362L41.48 38.5305C41.716 38.5305 41.834 38.2945 41.952 38.2945C41.952 38.2945 42.07 38.2946 42.07 38.1766C41.952 37.9406 42.188 37.9406 42.306 37.8226C42.542 37.5866 42.896 37.4686 43.0139 37.1146C43.0139 37.1146 43.0139 37.1146 43.1319 37.1146C43.2499 37.2326 43.368 37.2326 43.4859 37.1146C43.4859 37.1146 43.4859 37.1146 43.6039 37.1146C43.7219 37.1146 43.8399 37.1146 43.9579 37.1146C43.9579 37.1146 43.9579 37.1146 43.9579 36.9966C43.9579 36.9966 44.0759 36.9966 44.0759 37.1146C44.0759 36.9966 44.0759 36.8786 44.0759 36.7606V36.6426C44.0759 36.6426 44.1939 36.6426 44.1939 36.7606C44.1939 36.7606 44.1938 36.8786 44.3118 36.9966C44.4298 36.7606 44.5478 36.5247 44.5478 36.4067C44.6658 36.4067 44.7838 36.4067 44.9018 36.4067C45.1378 36.5247 45.1378 36.5246 45.2558 36.2887C45.3738 35.8167 45.6098 35.5807 46.0817 35.4627C46.1997 35.4627 46.3178 35.4627 46.4358 35.4627C46.6718 35.4627 46.9077 35.3447 47.2617 35.2267C47.2617 35.2267 47.3797 35.2267 47.3797 35.1087C47.2617 34.9907 47.0257 34.9907 47.1437 34.8727C47.1437 34.7548 47.1437 34.6368 47.3797 34.6368L47.4977 34.5188C47.4977 34.5188 47.6157 34.4008 47.6157 34.2828C47.7337 34.2828 47.7336 34.4008 47.8516 34.4008C47.9696 34.1648 47.9696 34.0468 48.0876 33.9288C48.0876 33.8108 48.2057 33.6928 48.2057 33.6928C48.4417 33.6928 48.4416 33.4568 48.5596 33.3388C48.6776 33.3388 48.7956 33.3388 48.9136 33.2208L49.0316 33.1029L49.1496 32.9849C49.2676 32.8669 49.2676 32.7489 49.3856 32.5129C49.5036 32.3949 49.6215 32.2769 49.6215 32.0409L49.7396 31.9229C49.8576 31.9229 49.9756 31.9229 49.9756 31.9229C50.0936 31.6869 50.0935 31.5689 50.2115 31.333C50.3295 30.979 50.4475 30.625 51.0375 30.625L51.1555 30.507L51.0375 30.389C50.9195 30.389 50.9195 30.389 50.8015 30.507C50.5655 30.271 50.5655 30.271 50.6835 30.153C50.8015 30.035 50.9195 29.917 51.1555 30.035C51.1555 30.153 51.1555 30.153 51.1555 30.271C51.2735 30.035 51.3914 29.917 51.3914 29.681V30.271C51.5094 30.153 51.6274 29.917 51.6274 29.799C51.6274 29.6811 51.6274 29.6811 51.6274 29.5631C51.6274 29.4451 51.7454 29.3271 51.8634 29.2091C51.8634 29.3271 51.8634 29.3271 51.8634 29.4451C52.2174 29.2091 51.9814 28.8551 52.0994 28.6191C52.0994 28.7371 52.0994 28.8551 52.2174 28.9731L52.3354 28.8551C52.5714 28.8551 52.4534 28.7371 52.4534 28.6191C52.4534 28.3831 52.4534 28.1471 52.6894 28.0291C52.6894 28.0291 52.8074 27.9112 52.6894 27.7932C52.5714 27.3212 52.6893 27.2032 53.1613 27.2032C53.3973 27.2032 53.5154 27.0852 53.5154 26.8492C53.5154 26.6132 53.6333 26.4952 53.7513 26.3773C53.8693 26.1413 53.9873 25.9053 53.9873 25.6693C53.9873 25.6693 53.9873 25.5513 54.1053 25.5513C54.3413 25.3153 54.3413 25.3153 54.2233 25.0793V24.9613H54.3412C54.5772 24.9613 54.6952 25.0793 54.9312 25.0793C54.9312 25.1973 54.8132 25.4333 54.8132 25.5513C54.8132 25.6693 54.8132 25.9053 54.8132 26.0233C54.8132 26.2593 54.6953 26.3772 54.6953 26.6132C54.5773 26.9672 54.4592 27.3212 54.3412 27.5572C54.2233 27.7932 54.1053 28.1471 53.8693 28.3831C53.7513 28.6191 53.5153 28.9731 53.3973 29.2091C53.2793 29.4451 53.1613 29.799 53.0434 30.035C52.9254 30.389 52.6893 30.743 52.5714 30.979C52.3354 31.097 52.3354 31.3329 52.2174 31.4509C52.2174 31.5689 52.2174 31.6869 52.0994 31.8049C51.8634 32.1589 51.7454 32.6309 51.5095 32.9849C51.3915 33.1028 51.3915 33.3388 51.2735 33.4568C51.1555 33.5748 51.1555 33.6928 50.9195 33.8108C50.8015 33.8108 50.6835 33.9288 50.6835 34.0468C50.4475 34.5188 50.0935 34.7548 49.5036 34.8727H49.3856C49.5036 34.9907 49.6216 35.1087 49.3856 35.2267C49.2676 35.3447 49.0316 35.4627 48.9136 35.5807C48.7956 35.6987 48.5596 35.8167 48.4416 36.0527C48.3236 36.1707 48.0876 36.1707 48.0876 36.4067H47.9697C47.8517 36.4067 47.8517 36.5246 47.7337 36.5246C47.6157 36.6426 47.3797 36.8786 47.2617 36.8786C47.0257 36.8786 47.0257 37.1146 46.7897 37.2326C46.6717 37.3506 46.5538 37.3506 46.4358 37.3506C46.3178 37.3506 46.1998 37.4686 46.1998 37.4686C45.9638 37.5866 45.8458 37.7046 45.6098 37.8226C45.3738 37.9406 45.1378 38.0586 45.0198 38.2945C45.0198 38.2945 44.9018 38.2945 44.9018 38.4125C44.7838 38.4125 44.6658 38.5305 44.5478 38.5305C44.1939 38.7665 43.8399 38.7665 43.6039 39.1205C43.3679 39.1205 43.2499 39.2385 43.1319 39.4745C43.1319 39.5925 43.014 39.5925 42.896 39.5925C43.014 39.4745 43.0139 39.4745 43.1319 39.3565C42.8959 39.4745 42.7779 39.4745 42.5419 39.5925C42.306 39.8285 42.07 39.8285 41.834 39.9465C41.598 40.0644 41.244 40.0644 41.008 39.9465C40.7721 39.9465 40.5361 39.9464 40.4181 40.1824C40.3001 40.4184 40.1821 40.7724 40.4181 41.0084C40.4181 41.0084 40.4181 41.0084 40.3001 41.0084C40.0641 41.2444 40.0641 41.3624 40.3001 41.5983V41.7163C40.1821 41.8343 40.0641 42.0703 39.9462 42.1883C40.0641 42.1883 40.0641 42.1883 40.1821 42.3063H40.0641C40.0641 42.4243 40.1821 42.5423 40.1821 42.6603C40.3001 42.6603 40.4181 42.7783 40.5361 42.6603L40.4181 42.5423C40.7721 42.5423 41.126 42.4243 41.362 42.4243V42.3063C41.244 42.3063 41.126 42.3063 41.008 42.3063C40.8901 42.3063 40.772 42.1883 40.772 42.1883C40.772 42.0703 40.7721 41.9523 40.8901 41.9523C41.0081 41.8343 41.1261 41.8343 41.244 41.9523C41.362 41.8343 41.48 41.7163 41.598 41.5983H41.716V41.7163C41.4801 41.8343 41.598 42.1883 41.48 42.3063C41.834 42.1883 41.834 42.4243 41.834 42.6603C41.952 42.5423 41.952 42.5423 42.07 42.4243C42.188 42.6603 42.188 42.6603 42.306 42.5423C42.306 42.5423 42.424 42.4243 42.5419 42.4243C42.6599 42.4243 42.66 42.4243 42.7779 42.5423V42.6603C42.66 42.6603 42.6599 42.7783 42.5419 42.7783C42.424 42.7783 42.424 42.7783 42.306 42.6603V42.7783C42.424 42.7783 42.424 42.8963 42.5419 42.8963C42.6599 42.8963 42.778 42.8963 42.896 42.7783C42.896 42.8963 42.896 42.8963 42.896 43.0143C43.014 42.8963 43.132 42.8963 43.2499 42.7783C43.3679 43.0143 43.4859 43.0143 43.4859 42.8963C43.6039 42.6603 43.7219 42.6603 43.9579 42.6603V43.0143C44.0759 43.0143 44.0759 43.0143 44.1939 43.0143C44.1939 43.1323 44.1938 43.2503 44.3118 43.3682H44.4299C44.6659 43.2503 44.7839 43.1323 45.0198 43.0143C45.1378 43.0143 45.2558 42.8963 45.2558 43.1323C45.2558 43.2503 45.2558 43.4862 45.3738 43.6042C45.4918 43.7222 45.7278 43.7222 45.9638 43.6042C46.0818 43.6042 46.1998 43.6042 46.1998 43.6042C46.4358 43.7222 46.5537 43.7222 46.6717 43.6042C47.2617 43.8402 47.7337 43.9582 48.2057 43.7222C48.2057 43.9582 48.2056 43.9582 48.4416 43.9582C48.5596 43.9582 48.6776 43.9582 48.6776 43.9582C48.9136 43.8402 49.0316 44.0762 49.2676 43.9582C49.3856 43.9582 49.5036 43.9582 49.5036 43.9582C49.6216 43.9582 49.7396 43.9582 49.7396 43.8402C49.7396 43.9582 49.7395 44.0762 49.6215 44.1942C49.8575 44.1942 50.0935 44.0762 50.2115 44.3122H50.3295C50.4475 44.3122 50.6835 44.1942 50.8015 44.3122C50.9195 44.3122 51.0375 44.4302 51.1555 44.5482C51.1555 44.5482 51.1555 44.6662 51.2735 44.6662H51.6274C51.6274 44.5482 51.6274 44.4302 51.6274 44.3122C51.6274 44.1942 51.8634 44.0762 51.9814 44.1942C52.2174 44.3122 52.5714 44.4302 52.8074 44.4302C52.9253 44.4302 53.1614 44.4302 53.2794 44.5482L53.3973 44.6662H53.5154V44.5482V44.4302C53.3974 44.1942 53.2793 44.0762 53.1613 43.8402C53.1613 43.7222 53.0434 43.7222 52.9254 43.7222C52.8074 43.7222 52.8074 43.6042 52.8074 43.6042C52.8074 43.3682 52.5714 43.2502 52.4534 43.2502C52.0994 43.1323 52.0994 42.8963 51.9814 42.6603C51.9814 42.5423 51.8635 42.5423 51.7455 42.4243C51.6275 42.3063 51.5094 42.3063 51.3914 42.1883C51.3914 42.0703 51.2735 42.0703 51.1555 42.0703C51.0375 42.0703 51.0375 41.9523 50.9195 41.8343C50.9195 41.7163 51.0375 41.5983 51.1555 41.5983C51.2735 41.5983 51.2734 41.5983 51.3914 41.5983C51.1554 41.4804 51.1555 41.2444 51.2735 41.2444C51.3915 41.2444 51.5095 41.1264 51.5095 41.0084C52.0994 41.0084 52.5714 40.8904 52.9254 40.4184C52.9254 40.5364 52.9254 40.5364 52.9254 40.6544C53.0434 40.6544 53.0433 40.6544 53.1613 40.6544C53.3973 40.5364 53.5153 40.5364 53.7513 40.4184C53.9873 40.3004 54.2233 40.3004 54.4593 40.1824C54.6953 40.0644 54.9313 40.0644 55.2852 40.1824C55.4032 40.0644 55.4032 40.0644 55.5212 39.9465C55.5212 39.9465 55.6392 39.8285 55.6392 39.9465C55.7572 40.0644 55.9932 40.0644 56.1111 39.9465C56.3471 39.8285 56.5832 39.7105 56.8191 39.7105H56.9371C57.1731 39.7105 57.4091 39.5925 57.7631 39.5925C57.8811 39.5925 57.8811 39.4745 57.9991 39.4745C58.3531 39.3565 58.707 39.3565 59.061 39.3565C59.297 39.3565 59.4149 39.3565 59.6509 39.3565C59.7689 39.3565 59.887 39.4745 60.005 39.4745C60.241 39.4745 60.3589 39.3565 60.2409 39.1205C60.2409 39.0025 60.2409 38.8845 60.3589 38.8845C60.4769 38.8845 60.4769 38.8845 60.5949 38.8845C60.7129 38.8845 60.7129 38.8845 60.8309 39.0025C60.8309 39.0025 60.8309 39.0025 60.8309 38.8845C60.8309 38.8845 60.7129 38.8845 60.7129 38.7665L60.5949 38.6485C60.5949 38.4125 60.4769 38.4125 60.2409 38.4125C60.2409 38.2945 60.2409 38.1766 60.1229 38.1766C60.1229 38.1766 60.123 38.1766 60.005 38.1766C59.887 38.0586 59.7689 37.8226 59.6509 37.7046C59.5329 37.5866 59.297 37.4686 59.179 37.3506C58.825 37.1146 58.5891 36.8786 58.2351 36.6426C58.1171 36.5247 57.999 36.4067 57.881 36.4067C57.6451 36.2887 57.4091 36.1707 57.1731 36.0527C57.0551 36.0527 56.9371 35.9347 56.9371 35.8167C57.0551 35.6987 57.0551 35.5807 57.1731 35.4627C57.5271 35.3447 57.7631 35.2267 58.117 34.9907C58.117 34.9907 58.2351 35.1087 58.2351 34.9907C58.4711 34.9907 58.707 34.8727 58.943 34.8727H59.061C59.179 34.9907 59.4149 34.9907 59.6509 34.8727C59.6509 34.9907 59.6509 35.1087 59.6509 35.1087C59.5329 35.2267 59.651 35.3447 59.769 35.2267C59.887 35.2267 59.887 35.2267 60.005 35.1087C60.359 34.9907 60.5949 34.9907 60.9489 34.8727C61.1849 34.8727 61.4208 34.8727 61.6568 34.8727C62.0108 34.8727 62.3648 34.7547 62.6008 34.7547H62.7188C63.3088 34.7547 63.8987 34.8727 64.3707 34.7547C64.6066 34.7547 64.7247 34.7547 64.7247 34.9907C64.8427 34.8727 65.1967 34.9907 65.0787 34.6368C65.3146 34.6368 65.4326 34.6368 65.6686 34.6368C66.0226 34.6368 66.2586 34.5188 66.6126 34.5188V34.4008C66.3766 34.6368 66.2586 34.6368 66.0226 34.6368ZM47.9697 32.9849C47.9697 32.9849 47.8517 32.9849 47.7337 33.1029C47.7337 32.9849 47.8516 32.8669 47.8516 32.7489C47.9696 32.8669 48.0877 32.8669 47.9697 32.9849ZM49.3856 31.333C49.3856 31.4509 49.2676 31.5689 49.1496 31.4509C49.1496 31.4509 49.1496 31.3329 49.1496 31.215V31.097L49.2676 30.979L49.3856 31.097C49.5036 31.215 49.5036 31.333 49.3856 31.333ZM55.1672 10.6842C55.4032 10.5662 55.7572 10.8022 55.7572 10.9202V11.0382H55.6392C55.5212 10.9202 55.4032 10.8022 55.1672 10.6842Z" fill="#BA1F36"/>
<path d="M21.1852 42.6603V42.7783V42.8963C21.0673 42.8963 21.0672 42.8963 20.9492 42.8963C20.8312 42.8963 20.8312 42.7783 20.7132 42.7783C20.7132 43.0143 20.5953 43.0143 20.3593 42.8963C20.3593 42.7783 20.3593 42.6603 20.3593 42.6603C20.2413 42.6603 20.1233 42.6603 20.0053 42.6603C20.0053 42.6603 20.0053 42.7783 20.0053 42.8963C20.0053 42.8963 20.0053 42.7783 19.8873 42.7783C19.6514 42.7783 19.5334 42.6603 19.2974 42.6603C19.1794 42.6603 19.0613 42.7783 18.9433 42.7783C18.8254 42.7783 18.5894 42.7783 18.4714 42.7783C18.1174 42.7783 18.1174 42.7783 17.9994 43.1323C17.7634 42.8963 17.4094 42.8963 17.1735 43.1323C17.0555 43.0143 16.8195 43.0143 16.7015 42.8963C16.8195 42.8963 16.8195 42.7783 16.9375 42.7783C17.0555 42.6603 17.2915 42.6603 17.2915 42.5423C17.5275 42.3063 17.7634 42.1883 17.9994 42.0703C18.1174 42.0703 18.2354 41.9523 18.4714 41.9523C18.5894 41.9523 18.7074 41.9523 18.8254 41.8343C19.0614 41.7163 19.2973 41.5983 19.5333 41.4803C20.1233 41.2444 20.7133 41.2444 21.1852 41.0084C21.1852 41.0084 21.1852 41.0084 21.3032 41.0084C21.4212 41.0084 21.5392 40.8904 21.4212 40.7724C21.4212 40.6544 21.3032 40.6544 21.3032 40.5364C21.4212 40.1824 21.3032 39.7105 21.5392 39.3565C21.5392 39.2385 21.5392 39.1205 21.5392 39.1205C21.4212 39.0025 21.3032 38.8845 21.1852 38.7665C21.0673 38.6485 20.8313 38.5305 20.5953 38.6485C20.4773 38.7665 20.3593 38.7665 20.3593 38.6485C20.2413 38.4125 20.2413 38.2945 20.1233 38.0586C20.0053 37.8226 19.8873 37.7046 19.5333 37.7046C19.4153 37.7046 19.4154 37.5866 19.2974 37.5866C19.0614 37.4686 18.9434 37.3506 18.7074 37.2326C18.5894 37.2326 18.4714 37.1146 18.3534 37.1146C18.1174 36.9966 18.1175 36.7606 18.1175 36.6426C18.1175 36.4067 17.8814 36.4067 17.7634 36.4067C17.6454 36.4067 17.6455 36.4067 17.5275 36.2887C17.2915 36.1707 17.1735 35.8167 16.9375 35.8167C16.8195 35.8167 16.7015 35.6987 16.7015 35.5807C16.4655 35.3447 16.3475 35.2267 16.1116 34.9907C15.8756 34.8727 15.6396 34.7548 15.5216 34.5188C15.5216 34.4008 15.4036 34.4008 15.2856 34.4008C15.1676 34.4008 15.0496 34.2828 15.0496 34.2828C14.8136 34.0468 14.5776 33.8108 14.3417 33.4568L14.2236 33.3388C14.1056 33.2208 13.9877 33.1028 13.8697 32.9849C13.8697 32.8669 13.7517 32.7489 13.5157 32.7489H13.3977C13.2797 32.6309 13.0437 32.5129 13.0437 32.2769C13.0437 32.2769 13.0437 32.2769 12.9257 32.1589C12.8077 32.0409 12.6897 32.0409 12.6897 31.9229C12.4537 31.6869 12.3358 31.333 12.0998 31.097C12.0998 31.097 11.9818 31.097 11.9818 30.979C11.8638 30.625 11.3918 30.389 11.3918 29.917C11.3918 29.7991 11.2738 29.799 11.2738 29.681C11.1558 29.4451 11.1559 29.2091 11.0379 28.8551C11.1559 28.8551 11.2738 28.9731 11.3918 28.9731C11.3918 28.9731 11.3918 28.8551 11.5098 28.8551L11.6278 28.9731C11.7458 29.0911 11.8638 29.0911 11.8638 29.2091C11.9818 29.4451 12.2177 29.5631 12.4537 29.681C12.5717 29.799 12.6898 29.917 12.8078 30.035C12.9258 30.153 12.9257 30.271 13.0437 30.389C13.1617 30.507 13.3977 30.743 13.5157 30.861C13.6337 30.861 13.9877 31.097 14.1057 31.333C14.1057 31.333 14.1056 31.333 14.2236 31.215C14.2236 31.333 14.2236 31.3329 14.2236 31.4509C14.2236 31.6869 14.4597 31.8049 14.5777 31.8049C14.6957 31.8049 14.8136 31.8049 14.8136 31.9229C14.9316 31.9229 15.0496 31.8049 15.0496 31.8049C15.1676 31.9229 15.0496 31.9229 15.0496 32.0409C15.0496 32.0409 15.0496 32.1589 15.0496 32.2769C15.1676 32.3949 15.2856 32.3949 15.5216 32.2769C15.6396 32.5129 15.6396 32.7489 15.8756 32.7489C15.9935 32.8669 15.9936 32.9849 16.1116 33.1029C16.2295 33.5748 16.7015 33.5748 16.9375 33.8108C16.8195 33.8108 16.8195 33.6928 16.7015 33.6928C16.7015 33.6928 16.7015 33.6928 16.7015 33.5748C16.8195 33.5748 16.9375 33.6928 16.9375 33.6928L17.0555 33.8108C17.1735 33.8108 17.1735 33.9288 17.2915 33.9288C17.1735 33.9288 17.1735 34.0468 17.0555 34.0468C17.0555 34.0468 17.0555 34.0468 16.9375 34.0468C16.9375 34.1648 17.0555 34.2828 17.1735 34.2828C17.2914 34.2828 17.4095 34.2828 17.5275 34.4008H17.6455H17.7634C17.7634 34.5188 17.7635 34.5188 17.8815 34.6368C17.7635 34.6368 17.7634 34.6368 17.6455 34.6368C17.4095 34.6368 17.2915 34.7547 17.0555 34.7547C17.6455 34.9907 18.1174 35.3447 18.5894 35.5807V35.6987C18.7074 35.6987 18.8254 35.8167 18.8254 35.9347C18.8254 36.0527 18.8254 36.1707 18.9433 36.2887C19.0613 36.5246 19.2974 36.7606 19.6513 36.8786C19.7693 36.8786 19.7694 36.8786 19.8873 36.9966C20.0053 37.1146 20.1233 37.2326 20.2413 37.2326C20.2413 37.2326 20.2413 37.2326 20.3593 37.3506C20.5953 37.7046 20.8313 37.8226 21.1852 37.9406C21.4212 38.0586 21.6572 38.2945 21.8932 38.4125C22.0112 38.4125 22.0112 38.5305 22.0112 38.6485C22.1292 39.0025 22.2472 39.0025 22.4831 38.8845C22.6011 38.7665 22.7192 38.6485 22.9551 38.6485C23.1911 38.5305 23.3091 38.4125 23.5451 38.2945L23.6631 38.1766C23.6631 37.9406 23.7811 37.8226 23.7811 37.7046C23.7811 37.7046 23.7811 37.5866 23.6631 37.5866C23.5451 37.5866 23.5451 37.5866 23.4271 37.4686C23.4271 37.4686 23.3091 37.4686 23.3091 37.3506C23.3091 37.1146 23.0731 37.1146 22.9551 36.9966C22.8371 36.9966 22.7191 36.9966 22.7191 36.8786C22.4832 36.6426 22.2472 36.4066 22.1292 36.1707C22.0112 35.9347 21.7752 35.5807 21.8932 35.2267C21.8932 35.1087 21.8932 34.9907 21.7752 34.8727C21.6572 34.7548 21.5393 34.6368 21.6572 34.5188V34.4008C21.6572 34.0468 21.6572 33.8108 21.5392 33.4568C21.4212 33.1029 21.6572 32.8669 21.8932 32.6309C22.0112 32.5129 22.0112 32.5129 22.1292 32.3949C22.4832 32.1589 22.7191 32.0409 23.0731 31.8049C23.1911 31.8049 23.1911 31.6869 23.3091 31.6869C23.5451 31.5689 23.7811 31.4509 24.0171 31.4509C24.4891 31.3329 24.843 31.451 25.315 31.333C25.433 31.333 25.669 31.215 25.787 31.215C25.905 31.215 25.905 30.979 25.905 30.861C25.669 30.153 25.315 29.6811 24.725 29.3271C24.2531 28.9731 23.7811 28.7371 23.3091 28.3831C23.0731 28.2651 22.9551 28.1471 22.7191 28.0291C22.4832 27.9112 22.1292 27.7932 21.8932 27.6752C21.6572 27.5572 21.4212 27.5572 21.1852 27.5572C20.4773 27.6752 19.8873 27.9112 19.2974 28.1471C18.9434 28.2651 18.7074 28.5011 18.3534 28.7371C18.1174 28.8551 17.8815 28.7371 17.8815 28.5011V28.3831C17.8815 28.1471 17.7634 28.0292 17.7634 27.7932C17.7634 27.0852 17.8814 26.4952 17.7634 25.7873C17.7634 25.4333 17.8814 25.1973 18.2354 24.9613C18.4714 24.8433 18.4714 24.7253 18.3534 24.6074C18.2354 24.3714 18.2354 24.2534 18.3534 24.0174C18.4714 23.8994 18.5894 23.7814 18.5894 23.7814C18.7074 23.6634 18.7074 23.4274 18.4714 23.4274C18.3534 23.4274 18.2354 23.4274 18.1175 23.4274C17.7635 23.4274 17.4094 23.5454 17.1735 23.5454C16.7015 23.6634 16.1116 23.6634 15.7576 24.0174C15.6396 24.0174 15.6396 24.1354 15.5216 24.1354C15.2856 24.2534 14.9316 24.3714 14.6956 24.4894C14.3416 24.6073 13.8697 24.8433 13.5157 24.9613C13.3977 24.9613 13.1617 24.9613 13.1617 25.3153L13.0437 25.4333C13.0437 25.4333 12.9258 25.4333 12.8078 25.4333C12.8078 25.3153 12.8077 25.3153 12.9257 25.1973C12.9257 25.0793 13.0437 25.0793 13.0437 24.9613C12.9257 24.8433 12.9258 24.7253 12.8078 24.4894C12.8078 24.2534 12.8078 24.0174 12.8078 23.7814C12.8078 23.6634 12.8078 23.6634 12.8078 23.5454C12.8078 23.3094 12.8077 23.0734 12.9257 22.7195C12.9257 22.4835 12.9257 22.2475 13.0437 22.1295C13.2797 21.7755 13.3977 21.5395 13.2797 21.1855V21.0676C13.3977 20.8316 13.6337 20.5956 13.6337 20.2416C13.6337 20.1236 13.6337 20.1236 13.5157 20.1236C13.3977 20.1236 13.2797 20.1236 13.2797 20.0056C13.2797 19.8876 13.3977 19.7696 13.3977 19.7696C13.7517 19.5336 14.1056 19.4157 14.4596 19.1797C14.5776 19.1797 14.5777 19.0617 14.5777 19.0617C14.4597 19.0617 14.4597 18.9437 14.3417 18.9437H14.2236C13.8696 18.9437 13.6337 18.9437 13.2797 18.9437C13.1617 18.9437 13.0437 18.9437 12.9257 19.0617C12.8077 19.0617 12.8077 19.1797 12.6897 19.1797C12.3358 19.2977 11.9818 19.2977 11.5098 19.4157C11.3918 19.4157 11.2738 19.4157 11.2738 19.4157C11.1558 19.4157 10.9199 19.4157 10.8019 19.4157C10.6839 19.4157 10.5659 19.5337 10.4479 19.5337C10.0939 19.6516 9.85788 19.6516 9.5039 19.6516C9.38591 19.6516 9.26797 19.6516 9.26797 19.5337C9.26797 19.2977 9.14994 19.0617 9.14994 18.9437C9.14994 18.8257 9.03197 18.7077 9.03197 18.5897C9.03197 18.4717 8.91398 18.2357 9.03197 18.1177C9.03197 17.8818 8.91394 17.6458 8.91394 17.4098C8.91394 17.1738 8.91395 17.1738 8.55997 17.1738C8.67797 16.8198 8.67799 16.4658 8.44201 16.2298C8.32402 16.1118 8.20601 15.9939 8.20601 15.8759C7.97002 15.5219 7.85203 15.2859 7.61604 14.9319C7.49805 14.8139 7.38006 14.6959 7.61604 14.5779V14.4599C7.38006 14.342 7.1441 14.106 6.90811 14.106H6.79008C6.67208 13.988 6.55411 13.752 6.43611 13.634C6.31812 13.516 6.31811 13.398 6.20011 13.516C6.08212 13.398 5.96414 13.162 5.84615 13.044C5.72815 12.926 5.72814 12.926 5.61015 12.808C5.61015 12.6901 5.49214 12.572 5.37415 12.572C5.25615 12.4541 5.13817 12.2181 5.02018 12.1001C5.02018 11.9821 4.90222 11.8641 4.90222 11.8641C4.78422 11.7461 4.66625 11.6281 4.54825 11.5101C4.43026 11.2741 4.19424 11.0381 4.07625 10.8022V10.6842C4.07625 10.4482 3.95824 10.3302 3.84025 10.2122C3.84025 10.2122 3.72229 10.2122 3.72229 10.0942C3.72229 9.85822 3.60425 9.62223 3.60425 9.38624C3.60425 9.26825 3.60428 9.26825 3.48629 9.15026C3.36829 9.03226 3.36832 8.91427 3.36832 8.79628V8.67829C3.25033 8.67829 3.25029 8.67829 3.25029 8.67829C3.25029 8.67829 3.13232 8.67829 3.13232 8.56029C3.36831 8.4423 3.36828 8.20632 3.25029 8.08833C3.25029 7.85234 3.25029 7.61635 3.25029 7.38036C3.25029 7.14438 3.25033 6.90838 3.36832 6.6724C3.48632 6.31842 3.36832 6.08244 3.36832 5.84645C3.36832 5.84645 3.36828 5.72846 3.25029 5.61047C3.13229 5.49247 3.01433 5.25649 3.13232 5.0205C3.25031 4.78451 3.13232 4.66652 3.13232 4.43054C3.13232 4.31254 3.01431 4.31254 2.89632 4.43054C2.77833 4.54853 2.66032 4.66651 2.66032 4.9025C2.54233 5.13849 2.54231 5.49248 2.42432 5.72847C2.42432 5.72847 2.42432 5.72846 2.42432 5.84645C2.30633 5.96444 2.30636 6.08244 2.30636 6.20043C2.30636 6.31842 2.30638 6.5544 2.18839 6.6724V6.7904C2.30638 7.02638 2.18835 7.14438 2.07036 7.38036C1.83437 7.97033 1.71642 8.56029 1.59843 9.15026C1.59843 9.26825 1.59838 9.50423 1.48039 9.62222V9.74022C1.48039 9.85822 1.36243 10.0942 1.36243 10.2122C1.24443 10.4482 1.12643 10.6842 1.12643 11.0382C1.12643 11.1561 1.12643 11.1561 1.12643 11.2741C1.12643 11.5101 1.00846 11.8641 1.00846 12.1001C1.00846 12.3361 1.00846 12.5721 1.00846 12.69C0.890468 12.926 1.00846 13.28 1.00846 13.516C1.00846 13.752 1.00842 13.988 0.890425 14.224C0.890425 14.342 0.772432 14.5779 0.890425 14.6959V14.8139C0.890425 15.0499 0.890454 15.1679 0.772461 15.4039C0.772461 15.5219 0.772461 15.7579 0.772461 15.8759C0.772461 16.1118 0.772461 16.2298 0.772461 16.4658C0.772461 16.5838 0.890468 16.7018 1.00846 16.7018C1.12645 16.7018 1.12643 16.5838 1.12643 16.5838C1.12643 16.8198 1.24439 16.9378 1.24439 17.1738C1.24439 17.2918 1.12643 17.2918 1.12643 17.4098C1.12643 17.2918 1.12645 17.2918 1.00846 17.1738C0.890468 17.2918 0.772432 17.4098 0.890425 17.5278C1.00842 17.7638 1.12643 17.9997 1.12643 18.2357C1.12643 18.2357 1.1264 18.3537 1.24439 18.3537C1.24439 18.4717 1.36243 18.5897 1.36243 18.7077C1.36243 18.9437 1.36243 19.1797 1.36243 19.4157V19.5337C1.48042 19.7696 1.59843 19.8876 1.59843 20.1236C1.59843 20.2416 1.71639 20.3596 1.71639 20.3596C1.83438 20.3596 1.83436 20.3596 1.83436 20.2416C1.95235 20.4776 1.95236 20.5956 2.07036 20.8316L2.18839 20.9496L2.30636 20.8316V20.7136C2.30636 20.8316 2.30636 20.8316 2.30636 20.9496C2.30636 20.9496 2.30636 21.0676 2.30636 21.1855C2.54234 21.5395 2.54237 21.8935 2.77836 22.1295C2.77836 22.1295 2.89632 22.2475 2.89632 22.3655C2.89632 22.2475 2.89629 22.2475 3.01429 22.2475C3.13228 22.3655 3.13232 22.4835 3.13232 22.4835C3.25031 22.6015 3.36832 22.8374 3.36832 22.9554C3.36832 23.0734 3.48626 23.0734 3.60425 23.1914L3.72229 23.3094C3.84028 23.5454 3.84027 23.6634 4.07625 23.6634C4.19424 23.8994 4.19427 24.1354 3.95829 24.2534C3.7223 24.3714 3.48627 24.4894 3.25029 24.6074C3.13229 24.6074 3.01429 24.7253 3.01429 24.7253C3.13228 24.9613 3.13231 25.1973 2.89632 25.4333C2.77833 25.4333 2.77836 25.5513 2.77836 25.5513C2.66036 25.7873 2.42435 26.0233 2.30636 26.2593C2.18836 26.3772 2.18835 26.4952 2.07036 26.6132C1.95236 26.9672 1.71642 27.2032 1.59843 27.5572C1.59843 27.6752 1.48039 27.7932 1.48039 27.9111C1.48039 28.0291 1.48042 28.1471 1.36243 28.2651C1.36243 28.3831 1.36243 28.5011 1.36243 28.6191C1.71641 28.7371 1.71642 28.7371 1.59843 29.0911C1.59843 29.2091 1.59843 29.3271 1.59843 29.4451C1.59843 29.5631 1.59843 29.6811 1.59843 29.799V29.917C1.83441 30.035 1.71639 30.271 1.71639 30.389C1.5984 30.743 1.59841 30.743 1.95239 30.861C2.07038 30.861 2.18833 30.861 2.42432 30.861C2.54231 30.861 2.54233 30.861 2.66032 30.861C3.0143 30.979 3.36831 30.979 3.72229 31.097C3.84028 31.097 3.95829 31.097 3.95829 30.979C3.95829 30.861 3.95823 30.743 4.19422 30.861C4.4302 30.861 4.5482 30.861 4.78418 30.979H4.90222C5.02021 30.979 5.13819 30.979 5.25618 31.097C5.37418 31.097 5.49218 31.097 5.49218 31.097C5.49218 31.097 5.61015 31.097 5.61015 31.215C5.61015 31.215 5.61015 31.3329 5.61015 31.4509C5.61015 31.4509 5.61019 31.5689 5.72818 31.5689L5.84615 31.4509C5.84615 31.4509 5.84615 31.451 5.84615 31.333C5.96414 31.451 5.84618 31.6869 5.72818 31.8049C5.72818 31.8049 5.61015 31.8049 5.61015 31.9229C5.49215 32.1589 5.3742 32.3949 5.13822 32.6309C4.90223 32.9848 4.78421 33.3388 4.66622 33.6928V33.8108C4.54822 34.2828 4.43023 34.6368 4.07625 34.8727C4.31224 35.1087 4.31224 35.3447 4.07625 35.5807C4.07625 35.6987 3.95829 35.6987 3.95829 35.8167C3.84029 36.0527 3.72224 36.2887 3.60425 36.5246C3.48626 36.6426 3.48626 36.8786 3.60425 36.9966C3.60425 36.9966 3.72224 37.1146 3.60425 37.1146C3.48626 37.2326 3.60425 37.2326 3.60425 37.3506C3.60425 37.4686 3.72224 37.5866 3.60425 37.7046C3.36826 37.8226 3.48629 37.9406 3.48629 38.1766V38.2945C3.48629 38.4125 3.48626 38.5305 3.60425 38.5305C3.72224 38.5305 3.84029 38.5305 3.95829 38.4125C4.07628 38.2945 4.19426 38.1765 4.31225 38.2945C4.43025 38.2945 4.54825 38.2945 4.54825 38.2945C4.66625 38.1765 4.90219 38.0586 5.02018 38.0586C5.37416 38.0586 5.72813 37.9406 5.96411 37.8226C6.0821 37.8226 6.20013 37.7046 6.43611 37.7046C6.6721 37.7046 6.79009 37.7046 7.02608 37.8226C7.14407 37.8226 7.14404 37.8226 7.14404 37.7046C7.14404 37.5866 7.14404 37.5866 7.14404 37.4686C7.26204 37.4686 7.26205 37.4686 7.38004 37.5866C7.49804 37.5866 7.49805 37.7046 7.61604 37.7046C7.73404 37.7046 7.85201 37.5866 7.97001 37.5866C8.088 37.5866 8.20598 37.4686 8.32397 37.4686C8.55996 37.4686 8.91395 37.3506 9.14994 37.4686H9.26797C9.50396 37.4686 9.73992 37.3506 9.9759 37.3506C10.2119 37.3506 10.5659 37.3506 10.8019 37.3506C11.0379 37.3506 11.2739 37.3506 11.6278 37.4686C11.8638 37.4686 12.2177 37.7046 12.4537 37.3506H12.5718C12.9257 37.4686 13.2797 37.4686 13.6337 37.5866C13.9876 37.8226 14.4597 38.0586 14.9316 38.1766C15.0496 38.1766 15.1676 38.2945 15.1676 38.4125C15.1676 38.5305 15.1676 38.6485 15.0496 38.6485C14.9316 38.7665 14.8136 38.8845 14.6956 38.8845C14.4596 39.0025 14.2236 39.3565 13.8697 39.1205C13.8697 39.1205 13.8697 39.1205 13.7517 39.1205C13.5157 39.2385 13.2797 39.3565 13.0437 39.3565C12.5717 39.5925 12.0998 39.7105 11.5098 39.5925C11.3918 39.5925 11.1559 39.5925 11.0379 39.5925C10.8019 39.5925 10.4479 39.5925 10.2119 39.4745C9.97592 39.4745 9.85793 39.3565 9.62194 39.3565C9.38595 39.3565 9.14998 39.5925 9.26797 39.7105C9.50396 40.0644 9.73995 40.3004 9.85794 40.6544C9.97593 40.7724 9.97588 40.8904 10.0939 40.8904C10.3299 41.1264 10.4478 41.3624 10.6838 41.5983C10.9198 41.7163 11.1558 41.9523 11.2738 42.1883V42.3063H11.1558C11.0378 42.3063 11.0378 42.3063 10.9198 42.3063C10.8018 42.3063 10.8018 42.3063 10.6838 42.3063C10.4478 42.3063 10.3299 42.3063 10.0939 42.3063C9.73989 42.4243 9.38591 42.4243 8.91394 42.4243C8.79594 42.4243 8.67797 42.4243 8.55997 42.4243C8.088 42.4243 7.61601 42.1883 7.14404 41.8343C7.02605 41.8343 7.02611 41.7163 6.90811 41.7163C6.67213 41.5984 6.4361 41.5983 6.20011 41.4803C6.08212 41.4803 6.0821 41.4803 5.96411 41.4803C5.72813 41.5983 5.49218 42.0703 5.49218 42.3063C5.49218 42.6603 5.72815 42.8963 5.84615 43.1323C6.08213 43.4862 6.31813 43.8402 6.67211 44.0762L6.79008 44.1942C6.90807 44.3122 7.02605 44.3122 7.14404 44.4302C7.26204 44.5482 7.49806 44.5482 7.26208 44.6662V44.7842V44.9022C7.14409 45.0202 6.90807 45.2561 6.79008 45.3741C6.67208 45.3741 6.55411 45.4921 6.43611 45.6101C6.43611 45.7281 6.31811 45.7281 6.20011 45.8461C6.08212 45.9641 5.84618 46.0821 5.72818 46.2001L5.61015 46.3181C5.25617 46.4361 5.02021 46.6721 4.90222 47.026L4.78418 47.144C4.5482 47.38 4.4302 47.498 4.19422 47.734C4.07622 47.852 4.07625 47.97 4.07625 48.088C4.07625 48.206 4.07628 48.324 3.95829 48.324C3.84029 48.4419 3.72224 48.5599 3.60425 48.6779V48.9139C3.84024 49.1499 4.07628 49.5039 4.54825 49.3859C4.66625 49.3859 4.66619 49.3859 4.78418 49.3859C4.90217 49.5039 5.13816 49.6219 5.37415 49.6219C5.72813 49.6219 5.96413 49.8579 6.20011 49.5039C6.20011 49.3859 6.20014 49.3859 6.08215 49.2679C6.20014 49.2679 6.20016 49.2679 6.31815 49.2679C6.55413 49.2679 6.79009 49.2679 7.02608 49.2679C7.26206 49.2679 7.61606 49.1499 7.85204 49.1499C8.20602 49.1499 8.55999 49.0319 8.79597 48.9139C8.91397 48.9139 8.91398 48.7959 9.03197 48.7959C9.26796 48.7959 9.5039 48.7959 9.5039 48.6779C9.73989 48.5599 9.85791 48.5599 9.9759 48.5599C10.0939 48.5599 10.2119 48.324 10.2119 48.324C10.5659 48.324 10.8019 48.088 11.0379 47.852C11.1559 47.852 11.1558 47.734 11.2738 47.734C11.2738 47.734 11.3918 47.734 11.3918 47.852C11.3918 47.97 11.5098 48.088 11.5098 48.206C11.5098 48.324 11.3918 48.442 11.3918 48.442C11.3918 48.5599 11.3918 48.5599 11.3918 48.6779C11.3918 48.7959 11.3918 48.7959 11.5098 48.9139C11.6278 49.0319 11.6278 49.1499 11.7458 49.1499C11.7458 49.2679 11.8638 49.2679 11.8638 49.3859C11.9818 49.5039 12.0998 49.5039 12.2178 49.6219C12.3358 49.8579 12.4538 49.9759 12.5718 50.2118V50.3298C12.5718 50.5658 12.5717 50.5658 12.6897 50.6838C12.8077 50.8018 12.9257 50.8018 12.9257 51.0378C13.0437 51.0378 13.0437 51.0378 13.0437 50.9198L13.1617 50.8018C13.3977 50.8018 13.3977 50.6838 13.3977 50.5658C13.3977 50.4478 13.3977 50.2118 13.5157 50.0938C13.7517 49.6219 13.8696 49.1499 14.2236 48.6779C14.3416 48.4419 14.6956 48.206 14.6956 47.852V47.734C14.8136 47.616 15.0496 47.38 15.1676 47.262L15.2856 47.144L15.4036 47.262L15.5216 47.38C15.5216 47.38 15.6396 47.498 15.6396 47.616C15.5216 47.616 15.5215 47.734 15.4036 47.734L15.5216 47.852C15.7576 47.97 15.7576 48.206 15.8756 48.324C15.8756 48.4419 15.8755 48.442 15.9935 48.442C16.2295 48.5599 16.2295 48.9139 16.4655 49.1499C16.4655 49.1499 16.4655 49.2679 16.5835 49.3859C16.8195 49.5039 16.8195 49.6219 16.8195 49.8579C16.8195 49.8579 16.8195 49.9759 16.9375 49.9759C17.1735 50.2118 17.4095 50.4478 17.6455 50.5658C17.7634 50.6838 17.9994 50.8018 18.2354 50.8018C18.3534 50.8018 18.4714 50.6838 18.4714 50.5658C18.5894 50.5658 18.7074 50.5658 18.7074 50.5658C18.7074 50.5658 18.7074 50.6838 18.8254 50.6838C18.7074 50.6838 18.7074 50.6838 18.5894 50.6838H18.4714L18.3534 50.8018C18.4714 51.0378 18.7074 51.1558 19.0614 51.0378C18.9434 50.6838 19.1794 50.3298 19.0614 49.9759C19.0614 49.8579 19.1793 49.7399 19.1793 49.7399C18.9434 49.2679 19.1793 48.9139 19.1793 48.442C19.1793 48.088 19.2974 47.852 19.2974 47.498C19.2974 47.262 19.2974 47.144 19.4153 46.908C19.5333 46.6721 19.6513 46.4361 19.7693 46.2001C19.7693 46.0821 19.8873 45.9641 19.8873 45.8461C20.0053 45.7281 20.0053 45.6101 19.8873 45.6101H19.7693C19.7693 45.6101 19.7693 45.6101 19.7693 45.4921L19.8873 45.3741C20.0053 45.2561 20.1233 45.1381 20.1233 45.0201C20.1233 44.9021 20.1233 44.7842 20.0053 44.7842C19.8873 44.7842 19.7693 44.7842 19.7693 44.7842C19.7693 44.7842 19.7694 44.7842 19.8873 44.7842C20.1233 44.7842 20.2413 44.7842 20.3593 44.6662L20.4773 44.3122C20.3593 44.1942 20.3593 44.0762 20.4773 43.9582C20.4773 43.8402 20.5953 43.7222 20.5953 43.7222C20.8313 43.4862 20.7132 43.1323 20.7132 42.8963C20.7132 42.7783 20.7132 42.6603 20.7132 42.5423C20.7132 42.4243 20.8313 42.3063 20.8313 42.1883C20.8313 42.0703 20.8312 42.0703 20.7132 41.9523C21.6572 42.4243 21.1852 42.5423 21.1852 42.6603Z" fill="#BA1F36"/>
<path d="M27.0848 46.79H27.2028C27.3208 46.79 27.3208 46.79 27.4388 46.79C27.4388 46.6721 27.3208 46.6721 27.3208 46.5541C27.3208 46.4361 27.4388 46.3181 27.5568 46.2001C27.6748 46.0821 27.7927 46.0821 27.7927 45.9641C27.7927 45.8461 27.6748 45.7281 27.6748 45.6101C27.6748 45.6101 27.6748 45.6101 27.6748 45.4921C27.6748 45.3741 27.6748 45.3741 27.6748 45.3741L27.4388 44.9022C27.4388 44.9022 27.4388 44.9022 27.4388 44.7842C27.4388 44.6662 27.2028 44.5482 27.2028 44.4302C27.0848 44.6662 26.9668 44.7842 26.7309 44.6662C26.4949 44.5482 26.2588 44.5482 26.0229 44.5482C25.7869 44.5482 25.6689 44.5482 25.4329 44.4302C25.1969 44.3122 24.843 44.4302 24.607 44.4302H24.489C24.371 44.6662 24.253 44.5482 24.135 44.5482C23.781 44.4302 23.427 44.5482 23.073 44.6662C22.955 44.7842 22.8371 44.7842 22.8371 44.9022C22.8371 44.9022 22.8371 44.9022 22.8371 45.0202L22.4831 45.4921V45.6101C22.3651 45.8461 22.2471 46.0821 22.2471 46.3181V46.4361C22.2471 46.5541 22.3651 46.7901 22.3651 46.908C22.4831 47.262 22.7191 47.616 22.9551 47.97C23.0731 48.206 23.309 48.56 23.663 48.6779C23.781 48.6779 23.899 48.7959 24.017 48.7959C24.135 48.7959 24.371 48.7959 24.489 48.7959C24.6069 48.56 24.8429 48.56 25.0789 48.442H25.197C25.315 48.442 25.3149 48.5599 25.4329 48.5599C25.6689 48.442 25.9049 48.442 25.9049 48.206C25.9049 48.088 26.0229 47.97 26.2589 47.97C26.3768 47.97 26.3769 47.852 26.4949 47.734C26.6128 47.616 26.7308 47.498 26.8488 47.38C26.8488 47.38 26.9669 47.38 26.9669 47.262C26.9669 47.026 27.0848 46.908 27.2028 46.908C27.0848 46.7901 27.0848 46.79 27.0848 46.79Z" fill="#BA1F36"/>
<path d="M28.5009 44.9022L28.7369 45.1382C28.8549 45.1382 28.9728 45.1382 29.0908 45.1382C29.4448 45.1382 29.7988 45.1382 30.0348 45.1382C30.1528 45.1382 30.2707 45.1382 30.3887 45.1382L30.6247 44.9022C30.7427 44.7842 30.7427 44.6662 30.8607 44.6662C31.0967 44.5482 31.2147 44.3122 31.3327 44.1942C31.4507 44.0762 31.4507 43.9582 31.3327 43.7222C31.2147 43.4863 31.0967 43.1323 30.8607 43.0143C30.7427 43.0143 30.7427 42.8963 30.6247 42.8963C30.0348 42.7783 29.3268 42.7783 28.7369 43.0143C28.3829 43.1323 28.3828 43.1323 28.6188 43.4863L28.5009 43.6042C28.1469 43.9582 28.1468 44.4302 28.3828 44.7842C28.3828 44.7842 28.3829 44.9022 28.5009 44.9022Z" fill="#BA1F36"/>
<path d="M36.9963 45.9641C36.9963 45.8461 36.8783 45.8461 36.8783 45.7281V45.6101C36.8783 45.4921 36.7603 45.3741 36.6423 45.3741C36.5243 45.3741 36.5243 45.3741 36.4063 45.3741C36.5243 45.1381 36.6423 45.1381 36.6423 45.0201L36.5243 44.9022C35.9343 44.9022 35.2264 44.7842 34.6364 44.7842C34.5184 44.7842 34.5184 44.7842 34.4004 44.7842C34.1645 44.6662 34.0465 44.6662 33.8105 44.6662C33.6925 44.6662 33.4565 44.7842 33.3385 44.5482H33.2205C32.9845 44.5482 32.7485 44.4302 32.5125 44.4302C32.5125 44.4302 32.5125 44.4302 32.3945 44.4302C32.1586 44.3122 31.8046 44.4302 31.6866 44.7842C31.6866 44.7842 31.6866 44.7842 31.6866 44.9022L31.4506 45.2561C31.4506 45.2561 31.4506 45.3741 31.4506 45.4921C31.4506 45.7281 31.2146 45.8461 31.0966 45.9641C31.0966 46.0821 31.2146 46.0821 31.2146 46.2001C31.0966 46.4361 30.8606 46.5541 30.6246 46.3181C30.3887 46.0821 30.1527 46.2001 30.0347 46.2001C29.9167 46.2001 29.7987 46.3181 29.5627 46.3181C29.3267 46.3181 29.0907 46.3181 28.8548 46.3181C28.5008 46.3181 28.5007 46.2001 28.3827 45.8461C28.3827 45.8461 28.3828 45.7281 28.2648 45.7281C28.2648 45.7281 28.1468 45.7281 28.0288 45.7281V45.8461C28.0288 45.9641 28.0288 45.9641 28.0288 46.0821C27.9108 46.2001 27.9108 46.3181 27.7928 46.5541C27.9108 46.672 28.0288 46.6721 28.0288 46.6721C27.7928 46.6721 27.6748 46.79 27.6748 47.026C27.6748 47.144 27.4389 47.262 27.5569 47.498C27.5569 47.498 27.5568 47.616 27.4388 47.734H27.3209L27.4388 47.852C27.3208 47.852 27.3208 47.97 27.2028 47.97C27.2028 48.2059 27.2028 48.324 27.0849 48.4419C26.8489 48.6779 26.7309 48.9139 26.7309 49.1499C26.8489 49.1499 26.8489 49.1499 26.9669 49.2679C26.8489 49.3859 26.7308 49.5039 26.6129 49.7399C26.7308 49.8579 26.7309 49.8579 26.7309 49.9759L26.6129 50.0938C26.7308 50.5658 26.8489 51.0378 27.4388 51.0378C27.4388 51.1558 27.4388 51.1558 27.3209 51.1558C27.3209 51.2738 27.3208 51.2738 27.4388 51.3918C27.5568 51.6278 28.0288 51.6278 28.2648 51.3918C28.2648 51.3918 28.3828 51.2738 28.5008 51.2738C28.5008 51.2738 28.5008 51.2738 28.5008 51.3918C28.3828 51.5098 28.2648 51.6278 28.1468 51.7458C28.3828 51.8637 28.6188 51.8637 28.7368 51.8637C28.9728 51.9817 29.2087 52.0997 29.5627 51.8637C29.5627 51.8637 29.5627 51.8637 29.6807 51.8637C30.1527 51.7457 30.6247 51.6277 31.0966 51.5098C31.2146 51.3918 31.2146 51.2738 31.3326 51.2738C31.5686 51.1558 31.5686 51.1558 31.4506 50.9198H32.1585C32.0405 50.9198 31.9226 50.8018 31.8046 50.8018C31.8046 50.6838 31.8046 50.6838 31.8046 50.5658C31.9226 50.5658 31.9226 50.5658 32.0406 50.5658C32.0406 50.3298 32.1586 50.0939 31.8046 49.9759C31.9226 49.9759 31.9225 49.9759 31.9225 49.8579C31.9225 49.8579 32.0406 49.8579 32.0406 49.7399C31.8046 49.5039 31.8045 49.5039 31.9225 49.2679C31.8045 49.1499 31.6866 49.1499 31.6866 49.0319C31.5686 48.9139 31.3326 48.7959 31.4506 48.5599C31.3326 48.4419 31.2146 48.206 31.0966 48.088C31.2146 47.97 31.3326 47.852 31.2146 47.616C31.0966 47.498 30.9786 47.498 30.9786 47.38C30.8606 47.262 30.8606 47.144 30.8606 47.026C30.8606 46.908 30.7426 46.79 30.7426 46.79C30.7426 46.79 30.6247 46.79 30.5067 46.6721C30.7427 46.5541 30.8607 46.4361 31.0966 46.4361C31.2146 46.4361 31.3326 46.5541 31.3326 46.5541C31.3326 46.79 31.4506 46.908 31.5686 47.144C31.6866 47.38 31.6866 47.616 32.0406 47.616C32.0406 47.616 32.0405 47.734 31.9225 47.852C32.1585 47.852 32.2765 47.852 32.5125 47.852C32.5125 47.852 32.5125 47.852 32.5125 47.97C32.3945 47.97 32.2765 48.088 32.1585 48.088C32.2765 48.088 32.2765 48.088 32.3945 48.088C32.3945 48.4419 32.7485 48.3239 32.8665 48.5599C32.7485 48.5599 32.5125 48.5599 32.3945 48.5599C32.3945 48.5599 32.3945 48.5599 32.3945 48.6779C32.6305 48.7959 32.8665 48.9139 33.1025 49.0319C33.1025 49.0319 33.1025 49.1499 32.9845 49.1499C33.2205 49.2679 33.3385 49.3859 33.4565 49.5039C33.5745 49.6219 33.8105 49.6219 34.0465 49.6219C34.2825 49.6219 34.4004 49.6219 34.5184 49.5039C34.5184 49.5039 34.6364 49.5039 34.7544 49.5039C35.1084 49.5039 35.3444 49.2679 35.6983 49.1499C35.8163 49.0319 35.9343 48.9139 36.0523 48.7959C36.1703 48.6779 36.2883 48.4419 36.4063 48.3239C36.4063 48.206 36.5243 48.088 36.5243 48.088C36.5243 47.852 36.7603 47.734 36.5243 47.498C36.6423 47.38 36.6423 47.144 36.7603 47.026C36.7603 46.908 36.7603 46.672 36.7603 46.5541C37.1143 46.2001 36.9963 46.0821 36.9963 45.9641Z" fill="#BA1F36"/>
<path d="M14.4596 12.926C14.4596 13.162 14.4596 13.398 14.5776 13.634C14.6956 13.752 14.6956 13.87 14.8136 13.988C15.0495 14.224 15.0496 14.224 14.9316 14.46C14.9316 14.46 14.9316 14.46 14.9316 14.578C15.1676 14.578 15.4035 14.6959 15.6395 14.6959C16.1115 14.8139 16.4655 14.9319 16.9375 14.9319H17.0555C17.2914 15.0499 17.5274 15.1679 17.7634 15.2859C17.7634 14.9319 17.9994 14.9319 18.2354 15.0499C18.1174 15.0499 18.1174 15.0499 17.9994 15.1679C17.8814 15.1679 17.8814 15.2859 17.7634 15.2859C17.8814 15.5219 17.9994 15.7579 18.1174 15.9939C17.9994 16.1119 17.7634 16.2299 17.6454 16.3479C17.5274 16.4658 17.4095 16.5838 17.5275 16.7018C17.5275 16.9378 17.5274 17.1738 17.4094 17.4098C17.2914 17.5278 17.1734 17.7638 17.1734 17.8818C17.0554 18.1177 17.0555 18.3537 16.9375 18.5897C16.8195 18.8257 16.8195 19.0617 16.9375 19.4157C17.0555 19.6517 17.1735 19.7696 17.2915 20.0056C17.5274 20.2416 17.7634 20.4776 18.1174 20.4776C18.1174 20.7136 18.2354 20.7136 18.4714 20.5956C18.5894 20.5956 18.5894 20.5956 18.7074 20.5956C18.9434 20.5956 19.1794 20.7136 19.2974 20.7136C19.5333 20.7136 19.7693 20.8316 20.0053 20.7136C20.2413 20.5956 20.3593 20.7136 20.4773 20.9496C20.4773 21.0676 20.4773 21.1856 20.4773 21.3036C20.3593 21.4216 20.2412 21.5396 20.1232 21.6575C19.8873 21.7755 19.8873 21.8935 19.8873 22.0115C19.8873 22.2475 19.8873 22.6015 19.7693 22.8375C19.6513 23.3094 19.7693 23.7814 20.0053 24.2534C20.0053 24.3714 20.2412 24.4894 20.1232 24.6074L20.2413 24.7254C20.4773 24.7254 20.5953 24.7254 20.8312 24.7254C21.0672 24.7254 21.3032 24.6074 21.6572 24.6074C21.7752 24.6074 21.8932 24.6074 22.0112 24.3714C22.0112 24.4894 22.0112 24.4894 22.0112 24.6074C22.1292 24.6074 22.1291 24.4894 22.1291 24.4894C22.2471 24.3714 22.2472 24.2534 22.3651 24.2534C22.7191 24.1354 23.0731 24.0174 23.4271 24.1354H23.5451C23.7811 24.0174 23.8991 24.1354 24.0171 24.2534C23.7811 24.4894 23.7811 24.4894 24.0171 24.6074C24.3711 24.7254 24.607 24.9613 24.607 25.4333C24.607 25.5513 24.725 25.7873 24.843 25.9053C24.961 26.0233 25.079 26.1413 25.079 26.2593C25.197 26.6132 25.551 26.9672 25.787 27.2032C26.141 27.4392 26.4949 27.4392 26.7309 27.2032C26.9669 26.9672 27.3209 26.8492 27.5569 26.6132C27.6749 26.4953 27.7928 26.3773 27.7928 26.1413C27.9108 25.9053 27.9108 25.6693 28.0288 25.5513C28.0288 25.4333 28.1468 25.3153 28.2648 25.1973C28.3828 24.9614 28.3828 24.7254 28.7368 24.6074C28.6188 24.4894 28.6188 24.4894 28.5008 24.3714C28.5008 24.2534 28.3828 24.1354 28.3828 24.0174C28.3828 23.8994 28.3828 23.7814 28.3828 23.6634C28.3828 23.5454 28.2648 23.3094 28.2648 23.1914C28.2648 22.9555 28.1468 22.8375 28.1468 22.6015L28.0288 22.4835C27.7928 22.3655 27.5568 22.2475 27.4388 22.1295C27.2028 22.0115 27.0849 21.8935 26.8489 21.7755C26.6129 21.6575 26.3769 21.5395 26.1409 21.4215C25.905 21.3036 25.787 21.1856 25.551 21.1856C25.197 21.0676 24.961 20.9496 24.725 20.5956C24.607 20.3596 24.371 20.2416 24.253 20.1236C24.135 20.0056 24.0171 19.8876 24.0171 19.7696C24.0171 19.6517 24.0171 19.5337 23.7811 19.4157C23.6631 19.4157 23.663 19.2977 23.663 19.2977C23.545 19.0617 23.4271 18.8257 23.3091 18.7077C23.1911 18.5897 23.1911 18.3537 23.1911 18.2357C23.1911 18.1177 23.1911 18.1177 23.0731 17.9998C23.0731 17.9998 23.0731 17.8818 22.9551 17.8818C22.9551 17.7638 22.8371 17.5278 22.8371 17.4098C22.8371 17.2918 22.7192 17.1738 22.8371 17.0558C22.9551 16.8198 22.7191 16.5838 22.7191 16.3479C22.7191 16.2299 22.6011 16.2298 22.7191 16.1119C22.7191 15.9939 22.8371 15.7579 22.8371 15.6399C22.7192 15.6399 22.7191 15.7579 22.6011 15.7579C22.6011 15.7579 22.6011 15.6399 22.4831 15.6399C22.2471 15.5219 22.2472 15.5219 22.2472 15.2859C22.2472 15.0499 22.3652 14.9319 22.6011 14.9319C22.7191 14.8139 22.9551 14.696 23.0731 14.578C22.8371 14.578 22.8371 14.46 22.9551 14.342C22.9551 14.106 23.0731 13.87 22.9551 13.752C23.0731 13.634 23.0731 13.634 23.0731 13.516C23.0731 13.398 23.1911 13.28 23.1911 13.28C23.1911 13.044 23.1911 12.9261 23.1911 12.6901C23.1911 12.5721 23.3091 12.3361 23.3091 12.2181C23.3091 12.1001 23.4271 11.9821 23.4271 11.9821C23.5451 11.8641 23.6631 11.7461 23.7811 11.6281C23.8991 11.5101 23.899 11.3921 23.899 11.3921C24.017 11.2741 24.135 11.2741 24.253 11.1562C24.371 11.0382 24.489 11.0382 24.607 10.9202C24.607 10.9202 24.607 10.9202 24.607 10.8022H24.725V10.4482C24.843 10.3302 24.961 10.2122 25.079 10.2122C25.197 10.0942 25.315 10.0942 25.551 9.97622C25.669 9.97622 25.787 9.97623 25.787 9.85824C25.905 9.62225 26.141 9.62224 26.3769 9.62224C26.6129 9.62224 26.7309 9.62224 26.8489 9.38626C26.9669 9.26826 27.0848 9.15027 27.2028 9.15027C27.5568 9.03228 27.9108 9.03228 28.2648 8.91429C28.5008 8.91429 28.6188 8.7963 28.8548 8.67831C29.0907 8.67831 29.4447 8.56031 29.6807 8.56031C30.1527 8.56031 30.6247 8.44231 31.0967 8.56031H31.2146C31.4506 8.6783 31.8046 8.6783 32.0406 8.79629C32.1586 8.79629 32.2765 8.91429 32.5125 8.91429C32.6305 8.91429 32.7486 9.03227 32.8666 9.03227C32.9845 9.03227 33.1025 9.15027 33.3385 9.15027C33.6925 9.26827 34.1645 9.38625 34.4005 9.62224C34.4005 9.62224 34.5185 9.74024 34.6365 9.74024L34.7544 9.85824C34.8724 9.97623 35.1084 10.2122 35.2264 10.3302C35.4624 10.5662 35.8164 10.9202 35.9343 11.1562C36.0523 11.3921 36.1703 11.7461 36.2883 11.9821C36.4063 12.2181 36.5243 12.3361 36.5243 12.5721C36.5243 12.6901 36.6423 12.8081 36.6423 12.926C36.6423 13.162 36.7603 13.28 36.8783 13.28C37.3502 13.398 37.9402 13.398 38.4122 13.516C38.6482 13.516 39.0022 13.516 39.2381 13.634C39.4741 13.634 39.5921 13.752 39.8281 13.634H39.9461L41.362 13.398C41.48 13.398 41.598 13.398 41.598 13.398C41.834 13.398 42.07 13.398 42.306 13.516H42.424C42.542 13.516 42.6599 13.398 42.7779 13.398C42.8959 13.398 43.2499 13.044 43.2499 12.926C43.2499 12.6901 43.3679 12.5721 43.3679 12.3361C43.3679 12.1001 43.3679 11.8641 43.1319 11.7461L43.0139 11.6281C43.0139 11.3921 42.896 11.2741 42.66 11.1562C42.306 10.9202 42.07 10.5662 41.598 10.5662C41.48 10.5662 41.362 10.5662 41.362 10.4482C41.244 10.4482 41.244 10.3302 41.244 10.3302C41.126 10.0942 41.362 9.62225 41.598 9.50426C41.716 9.38626 41.834 9.26827 41.834 9.15027C41.834 8.91429 41.834 8.79629 42.07 8.79629C42.188 8.79629 42.188 8.67831 42.306 8.67831C42.306 8.67831 42.424 8.5603 42.306 8.44231C42.188 8.32431 42.306 8.20634 42.306 8.08834C42.306 7.97035 42.424 7.97034 42.424 7.85234C42.542 7.49836 42.542 7.14438 42.424 6.67241C42.424 6.55442 42.424 6.31844 42.424 6.20045V6.08245C42.188 5.96445 42.07 5.72847 41.834 5.84646C41.598 5.84646 41.48 5.84647 41.362 5.72848C41.244 5.72848 41.126 5.61048 41.008 5.61048C40.772 5.61048 40.6541 5.72847 40.4181 5.84646C40.1821 5.96446 40.0641 5.96445 39.8281 6.08245C39.5921 6.08245 39.2381 6.20045 39.0021 6.20045C38.8841 6.20045 38.8842 6.20044 38.7662 6.08245C38.6482 5.96445 38.6482 5.96446 38.5302 5.84646C38.5302 5.72847 38.5302 5.61048 38.4122 5.61048C38.4122 5.49249 38.4122 5.25651 38.2942 5.13852C38.1762 4.78454 38.0582 4.54855 38.2942 4.19457C38.1762 4.07658 38.0582 4.07657 38.1762 3.84059C38.2942 3.84059 38.4122 3.95859 38.5302 3.95859C38.6482 3.95859 38.6482 3.95859 38.7662 3.95859C38.7662 3.95859 38.7662 3.84058 38.7662 3.72259C38.7662 3.72259 38.7662 3.7226 38.7662 3.6046L38.4122 2.77866C38.2942 2.30668 37.9402 2.07068 37.4682 1.95269C37.3502 1.95269 37.2323 1.95269 37.1143 1.95269C36.9963 1.95269 36.8783 2.07069 36.7603 2.07069C36.5243 2.07069 36.2883 2.18868 35.9343 2.30667C35.5804 2.42467 35.1084 2.54266 34.7544 2.66066C34.6364 2.77865 34.4004 2.77864 34.2824 2.89664C34.0464 3.13262 33.6925 3.25061 33.4565 3.13262C33.3385 3.13262 33.2205 3.01463 33.2205 2.89664C33.3385 2.89664 33.3385 2.77866 33.4565 2.77866L33.5745 2.66066L33.4565 2.54265C33.2205 2.42466 32.9845 2.18868 32.8666 2.07069C32.6306 1.8347 32.3945 1.59871 32.1586 1.36272C32.0406 1.24473 31.9226 1.00875 31.6866 0.890759C31.3326 0.772766 31.0966 0.890759 30.7426 0.890759C30.6246 0.890759 30.3887 1.00876 30.2707 1.00876C30.0347 1.12675 29.7987 1.24474 29.5627 1.48072C29.3267 1.59872 29.2088 1.7167 29.0908 1.95269C29.0908 2.18868 28.9728 2.42466 28.8548 2.54265C28.8548 2.54265 28.8548 2.66066 28.7368 2.66066C28.5008 3.01463 28.3828 3.01464 28.0288 3.01464C27.9108 3.01464 27.9108 3.01463 27.7928 2.89664C27.6748 2.89664 27.5568 2.89664 27.4388 2.89664C27.2028 3.01463 26.8489 3.01463 26.6129 2.89664C26.4949 2.89664 26.3769 2.66066 26.1409 2.66066C25.787 2.42467 25.433 2.30668 25.197 2.07069C24.607 1.59872 23.8991 1.48072 23.1911 1.71671C22.7191 1.8347 22.3652 2.07068 22.0112 2.54265C21.7752 2.77864 21.7751 3.01463 21.8931 3.25062L22.1291 3.84059C22.1291 3.84059 22.2472 3.95858 22.2472 4.07657C22.2472 4.31255 22.2472 4.54855 22.3651 4.78453V4.90252C22.1292 5.1385 21.8932 5.49248 21.5392 5.49248C21.4212 5.49248 21.1852 5.49248 21.0672 5.49248C20.8313 5.49248 20.4773 5.49248 20.2413 5.49248C19.8873 5.37449 19.4153 5.37449 19.0614 5.2565C18.5894 5.2565 18.1174 5.2565 17.6454 5.49248C17.2914 5.61047 17.0555 5.96446 16.9375 6.20045C16.9375 6.31844 16.9375 6.31844 16.9375 6.43643C16.9375 6.67242 16.9375 6.9084 16.9375 7.02639C16.9375 7.38037 17.0554 7.73436 17.1734 8.08834C17.2914 8.32433 17.2915 8.56032 17.5275 8.67831C17.5275 8.7963 17.6454 8.91429 17.7634 8.91429C17.8814 9.03228 17.9994 9.15028 18.1174 9.26827C18.2354 9.38627 18.2354 9.50426 18.3534 9.50426C18.5893 9.62225 18.5894 9.85824 18.4714 10.0942C18.3534 10.3302 18.1174 10.5662 17.8814 10.6842C17.7634 10.6842 17.6455 10.8022 17.5275 10.8022C17.1735 10.9202 16.8195 11.0382 16.4655 11.2742C16.2295 11.3921 16.1115 11.3921 15.8755 11.3921C15.6395 11.6281 15.2856 11.6281 14.9316 11.7461C14.5776 11.7461 14.4596 12.2181 14.5776 12.5721C14.4596 12.8081 14.4596 12.8081 14.4596 12.926Z" fill="#BA1F36"/>
<path d="M43.3679 15.9939C43.1319 15.8759 43.0139 15.8759 42.7779 15.9939C42.5419 16.1119 42.1879 16.1119 41.9519 16.1119C41.716 16.1119 41.48 16.2298 41.48 16.4658C41.48 16.5838 41.362 16.7018 41.244 16.7018C41.126 16.7018 41.008 16.8198 41.008 16.9378C41.008 17.0558 41.008 17.1738 40.8901 17.2918C40.8901 17.4098 40.89 17.5278 40.772 17.6458C40.772 17.8818 40.89 18.1177 40.6541 18.3537C40.6541 18.3537 40.6541 18.3537 40.6541 18.4717C40.6541 18.7077 40.6541 18.8257 40.5361 18.9437C40.5361 18.9437 40.4181 19.0617 40.4181 19.1797C40.3001 19.7696 40.3 20.2416 40.1821 20.8316C40.1821 21.0676 40.1821 21.1856 39.9461 21.1856C39.5921 21.3035 39.1202 21.4216 38.7662 21.6575C38.4122 22.0115 38.0582 22.3655 37.9402 22.8375C37.9402 22.9555 37.8222 23.0734 37.7042 23.1914C37.3502 23.3094 37.1143 23.5454 36.7603 23.6634C36.4063 23.8994 35.9343 24.1354 35.5804 24.2534C35.4624 24.2534 35.3444 24.3714 35.2264 24.3714C34.9904 24.3714 34.7544 24.2534 34.6364 23.8994C34.6364 23.6634 34.5184 23.5454 34.5184 23.3094C34.4004 23.0734 34.4004 22.9555 34.2824 22.8375C34.1644 22.6015 34.0464 22.3655 33.9284 22.1295C33.5745 21.6575 33.2205 21.1856 32.8665 20.7136C32.7485 20.4776 32.5125 20.3596 32.3945 20.2416V20.3596C32.1586 20.2416 31.9226 20.1236 31.6866 20.0056C31.5686 20.0056 31.5686 19.8876 31.4506 19.7696C31.3326 19.6517 31.3326 19.5337 31.2146 19.4157C31.0966 19.2977 30.9786 19.2977 30.8606 19.0617C30.6247 18.7077 30.3887 18.5897 30.0347 18.3537C29.9167 18.3537 29.9167 18.2357 29.7987 18.2357C29.6807 18.1177 29.4447 17.9997 29.3267 17.8817C29.2088 17.7638 29.0907 17.7638 29.0907 17.6458C29.0907 17.4098 29.0907 17.2918 28.9727 17.0558C28.9727 16.8198 28.8548 16.5838 28.7368 16.4658C28.7368 16.2298 28.5008 16.1119 28.7368 15.8759C28.7368 15.8759 28.6187 15.7579 28.6187 15.6399C28.6187 15.5219 28.5008 15.5219 28.5008 15.4039C28.5008 15.2859 28.3827 15.2859 28.3827 15.1679C28.2648 15.0499 28.2648 15.0499 28.2648 14.9319C28.5008 14.6959 28.6187 14.46 28.9727 14.46C29.0907 14.46 29.3267 14.46 29.0907 14.224C29.0907 14.224 29.0907 14.224 29.0907 14.106C29.0907 13.988 29.2087 13.752 29.2087 13.634C29.4447 13.634 29.6807 13.516 29.9167 13.516C30.0347 13.516 30.0346 13.516 30.1526 13.516C30.2706 13.516 30.2706 13.516 30.3886 13.634C30.8606 13.752 31.3326 13.752 31.8046 13.87C32.0406 13.87 32.2765 13.988 32.3945 14.106C32.6305 14.342 32.7485 14.578 32.8665 14.8139C32.9845 15.0499 33.1025 15.1679 33.2205 15.4039C33.3385 15.6399 33.4564 15.7579 33.6924 15.8759C33.8104 15.8759 33.9284 15.8759 33.9284 15.9939C34.1644 16.2299 34.5184 16.1119 34.7544 15.9939C34.8724 15.9939 34.8724 15.8759 34.9904 15.7579C35.1084 15.6399 35.1084 15.5219 35.2264 15.2859V15.1679C35.2264 15.0499 35.1084 14.9319 35.1084 14.9319C35.2264 14.8139 35.3444 14.46 35.5804 14.578H35.6983C35.8163 14.578 35.8163 14.46 35.9343 14.46C35.8163 14.342 35.8163 14.342 35.6983 14.224C35.6983 14.224 35.6984 14.224 35.5804 14.224C35.3444 14.106 35.2264 13.988 35.2264 13.752C35.1084 13.516 35.1084 13.162 34.9904 12.926C34.8724 12.808 34.7544 12.5721 34.6364 12.4541C34.8724 12.3361 34.8724 12.2181 34.5184 11.9821C34.6364 11.7461 34.5184 11.6281 34.4004 11.6281C34.0465 11.3921 33.8105 10.9202 33.4565 10.6842C33.2205 10.5662 32.9845 10.4482 32.7485 10.4482C32.5125 10.4482 32.2766 10.4482 32.0406 10.3302C31.8046 10.2122 31.5686 10.0942 31.3326 9.97622C31.0966 9.85822 30.7426 9.85823 30.3886 9.74023C30.2706 9.74023 30.0347 9.74023 29.9167 9.74023C29.5627 9.74023 29.2087 9.74023 28.8547 9.74023C28.5008 9.74023 28.2648 9.74023 28.0288 9.97622L27.9108 10.0942C27.3209 10.3302 26.8489 10.5662 26.2589 10.8022C25.7869 11.0381 25.433 11.3921 25.197 11.8641C24.961 12.2181 24.961 12.5721 24.607 12.8081C24.489 12.9261 24.489 12.926 24.489 13.044C24.371 13.516 24.135 13.87 24.135 14.342C24.135 14.5779 23.899 14.6959 23.663 14.8139C23.781 14.8139 23.7811 14.8139 23.7811 14.8139C24.017 14.9319 24.017 15.1679 23.899 15.2859C23.663 15.5219 23.6631 15.7579 23.7811 16.1119C23.7811 16.2298 23.7811 16.2299 23.7811 16.3479C23.7811 16.5838 23.899 16.8198 23.899 17.0558V17.1738C23.899 17.2918 23.8991 17.5278 24.0171 17.6458L24.135 17.7638C24.253 18.1177 24.371 18.4717 24.607 18.7077V18.8257C24.725 19.0617 24.607 19.2977 24.961 19.2977C25.197 19.4157 25.433 19.6517 25.551 19.7696C25.6689 20.0056 25.9049 20.2416 26.1409 20.2416C26.1409 20.2416 26.2589 20.2416 26.2589 20.3596C26.3769 20.4776 26.3769 20.7136 26.4949 20.8316C26.4949 20.9496 26.6129 21.0676 26.6129 21.0676C26.8488 21.0676 27.0848 21.4215 27.2028 21.5395C27.4388 21.7755 27.6748 22.0115 27.9108 22.2475C28.0288 22.3655 28.2648 22.4835 28.3827 22.6015C28.5007 22.7195 28.6187 22.7195 28.6187 22.8375C28.6187 23.0735 28.8547 23.1914 28.9727 23.3094C29.0907 23.3094 29.0907 23.4274 29.2087 23.5454C29.3267 23.7814 29.5627 24.0174 29.6807 24.2534C29.7987 24.3714 29.9167 24.4894 30.0347 24.6074C30.1527 24.7254 30.1527 24.7254 30.0347 24.8433C29.9167 24.8433 29.7987 24.8433 29.7987 25.0793C29.7987 25.1973 29.9167 25.1973 30.0347 25.3153H30.1526C30.5066 25.4333 30.6246 25.6693 30.7426 25.9053C30.7426 26.0233 30.8606 26.2593 30.9786 26.2593C31.0966 26.3773 31.2146 26.4953 31.2146 26.6132C31.3326 26.8492 31.3326 27.2032 31.4506 27.4392C31.4506 27.5572 31.4506 27.5572 31.4506 27.6752C31.4506 27.9112 31.3326 28.0292 31.3326 28.2651C31.4506 28.6191 31.4506 28.9731 31.3326 29.3271C31.2146 29.6811 31.2146 30.035 31.0966 30.389C30.9787 30.507 30.9786 30.625 30.9786 30.743C30.9786 30.861 30.9786 30.979 30.8606 31.097C30.6247 31.569 30.1527 31.9229 29.9167 32.5129C29.7987 32.8669 29.5627 33.1029 29.4447 33.3388C29.4447 33.4568 29.3267 33.4568 29.2087 33.5748C28.9727 33.5748 28.8547 33.8108 28.8547 33.9288C28.7368 34.2828 28.5008 34.4008 28.2648 34.4008C28.1468 34.5188 28.0288 34.5188 28.0288 34.6368C28.0288 34.8728 27.9108 34.9907 27.6748 34.9907H27.5569C27.5569 34.9907 27.5569 34.9907 27.5569 35.1087C27.6748 35.1087 27.7928 35.2267 27.9108 35.2267C28.3828 35.2267 28.7368 35.1087 29.0907 35.1087L29.2087 34.9907H29.3267C29.4447 35.2267 29.6807 35.2267 29.9167 35.2267C30.3887 35.2267 30.8606 35.2267 31.3326 35.2267C31.4506 35.2267 31.4506 35.2267 31.5686 35.2267C32.1585 35.5807 32.6305 35.2267 33.2205 35.1087C33.2205 34.9907 33.1025 34.8728 33.1025 34.8728C33.2205 34.7548 33.3385 34.6368 33.4565 34.5188C33.4565 34.5188 33.5744 34.4008 33.6924 34.4008C33.8104 34.1648 34.0464 33.9288 34.1644 33.6928C34.2824 33.5748 34.2824 33.4568 34.1644 33.3388C34.0464 33.2209 34.1644 32.9849 34.1644 32.8669C34.2824 32.6309 34.5184 32.2769 34.5184 32.0409C34.6364 31.8049 34.6364 31.451 34.6364 31.215C34.6364 31.097 34.6364 31.097 34.7544 30.979C34.7544 30.861 34.8724 30.861 34.8724 30.743C34.8724 30.507 34.9904 30.153 35.1084 29.9171C35.1084 29.7991 35.2264 29.799 35.2264 29.6811C35.2264 29.4451 35.2264 29.2091 35.2264 28.9731C35.2264 28.6191 35.2264 28.2651 35.1084 28.0292C35.1084 27.7932 34.9904 27.5572 34.9904 27.3212C34.9904 27.0852 34.8724 26.9672 34.9904 26.7312C35.1084 26.4952 35.1084 26.3773 34.9904 26.2593C34.8724 25.9053 34.8724 25.7873 35.2264 25.6693C35.3444 25.5513 35.4623 25.5513 35.6983 25.5513C35.9343 25.4333 36.1703 25.3153 36.4063 25.3153C36.6423 25.1973 36.8783 25.1973 37.1143 25.0793C37.3502 25.0793 37.5862 25.0793 37.7042 24.8433C37.7042 24.7254 37.8222 24.7253 37.8222 24.7253C37.9402 24.7253 37.9402 24.8433 38.0582 24.8433C38.1762 24.9613 38.1762 25.0793 38.2942 25.0793C38.5302 25.3153 38.8842 25.5513 39.1202 25.7873C39.2382 25.9053 39.3561 25.9053 39.4741 25.9053C39.4741 25.6693 39.3561 25.6693 39.2381 25.6693C39.1201 25.5513 39.0021 25.4333 39.0021 25.3153C39.0021 25.1973 39.2381 25.1973 39.2381 25.0793H39.3562L39.2381 24.9613C39.0021 24.8433 38.7662 24.8433 38.5302 24.7253C38.4122 24.7253 38.4122 24.6074 38.4122 24.6074C38.4122 24.4894 38.5302 24.3714 38.5302 24.3714C38.7662 24.3714 39.0022 24.3714 39.1202 24.3714C39.4741 24.3714 39.7101 24.4894 40.0641 24.6074C40.3001 24.6074 40.4181 24.7254 40.5361 24.6074C40.5361 24.6074 40.654 24.6074 40.772 24.6074C41.126 24.7254 41.48 24.6074 41.716 24.3714C41.952 24.2534 42.07 23.8994 42.306 23.7814C42.542 23.6634 42.542 23.5454 42.6599 23.1914C42.7779 22.7195 42.6599 22.3655 42.4239 22.1295C42.188 21.8935 41.834 21.7755 41.598 21.6575C41.362 21.5395 41.244 21.5395 41.008 21.4215C40.89 21.4215 40.6541 21.3036 40.5361 21.3036C40.3001 21.3036 40.1821 21.1856 40.3001 20.9496V20.8316C40.3001 20.7136 40.4181 20.4776 40.5361 20.3596C40.5361 20.2416 40.5361 20.1236 40.6541 20.0056C40.6541 19.8876 40.772 19.6517 40.772 19.5337C40.772 19.1797 41.008 19.0617 41.362 18.9437C41.48 18.9437 41.716 18.8257 41.834 18.8257C42.188 18.7077 42.424 18.5897 42.6599 18.4717C43.0139 18.2357 43.2499 17.9997 43.4859 17.6458C43.6039 17.5278 43.7218 17.2918 43.7218 17.1738C43.6038 16.7018 43.9579 16.7018 44.1938 16.4658C44.4298 16.2298 44.6658 16.1119 44.9018 15.9939C45.0198 15.8759 45.1378 15.7579 45.2558 15.7579C45.4918 15.7579 45.6098 15.8759 45.6098 15.9939C45.6098 16.1119 45.6098 16.2299 45.8458 16.2299C45.9638 16.2299 45.9637 16.3479 46.0817 16.3479C46.0817 16.4658 46.1997 16.5838 46.1997 16.5838C46.1997 16.7018 46.3177 16.8198 46.4357 16.8198C46.6717 16.8198 46.7897 16.8198 46.9077 17.0558C47.0257 17.4098 47.1437 17.4098 47.3797 17.2918C47.6157 17.5278 47.7336 17.5278 47.9696 17.4098C48.0876 17.2918 48.3236 17.1738 48.4416 17.1738C48.6776 17.0558 48.7956 16.9378 48.9136 16.9378L49.0315 16.8198C49.0315 16.7018 49.1496 16.4658 49.1496 16.4658C49.2676 16.3478 49.3856 16.1119 49.3856 15.8759C49.5036 15.5219 49.3855 15.1679 49.0315 14.9319C48.9135 14.8139 48.9136 14.8139 48.7956 14.6959V14.578L48.6776 14.224C48.4416 14.224 48.2056 14.224 47.9696 14.224C47.7336 14.224 47.3797 13.988 47.1437 14.106C46.9077 13.988 46.6717 14.106 46.5537 14.106H46.4357C46.4357 14.106 46.3177 13.988 46.3177 13.87C46.3177 13.516 46.7897 13.28 47.0257 13.28C47.0257 13.162 47.0257 13.162 47.0257 13.044C47.1437 12.8081 47.2617 12.4541 47.3797 12.2181C47.4977 11.9821 47.6156 11.7461 47.4976 11.5101V11.3921C47.6156 11.2741 47.6156 11.1561 47.4976 10.9202C47.4976 10.9202 47.4976 10.8022 47.4976 10.6842C47.4976 10.5662 47.4976 10.5662 47.4976 10.4482C47.4976 10.2122 47.3796 9.97622 47.2616 9.74023C47.2616 9.74023 47.1436 9.62224 47.2616 9.50425C47.2616 9.38626 47.2617 9.26826 47.1437 9.15027C46.9077 9.03227 46.7897 8.7963 46.6717 8.6783C46.5537 8.56031 46.4357 8.5603 46.3177 8.5603C46.0817 8.5603 45.8457 8.5603 45.7277 8.5603C45.4918 8.5603 45.2558 8.5603 45.1378 8.79629C45.1378 8.91428 45.0198 8.91427 44.9018 9.03227C44.7838 9.38625 44.5478 9.62224 44.5478 9.97622C44.5478 10.3302 44.5478 10.6842 44.7838 11.0382V11.1561C44.9018 11.5101 44.9018 11.9821 45.2558 12.2181C45.3738 12.3361 45.3737 12.4541 45.4917 12.5721C45.6097 12.808 45.6097 12.926 45.4917 13.162C45.2558 13.398 45.1378 13.634 45.0198 13.87C44.9018 13.988 44.7838 14.224 44.6658 14.224C44.4299 14.342 44.5478 14.342 44.5478 14.46C44.5478 14.5779 44.6658 14.5779 44.5478 14.6959C44.4298 14.8139 44.4298 15.0499 44.3118 15.1679C44.0758 15.4039 43.8399 15.7579 43.6039 15.9939C43.3679 16.1119 43.2499 16.3478 42.8959 16.2299C43.4859 15.9939 43.3679 15.9939 43.3679 15.9939Z" fill="#BA1F36"/>
<path d="M31.4507 41.2444C31.6867 40.7724 31.9227 40.4184 32.0406 40.0644C32.0406 40.0644 32.0406 39.9465 32.0406 39.8285C32.0406 39.7105 32.0406 39.4745 32.0406 39.3565C32.2766 38.8845 32.1586 38.2946 32.0406 37.8226L32.1586 37.7046C32.0406 37.5866 31.9226 37.5866 31.8046 37.4686L31.6867 37.3506C31.4507 37.1146 31.2147 36.8786 30.9787 36.7606C30.6247 36.5246 30.2707 36.4067 29.7987 36.1707C29.4448 36.0527 29.2088 36.1707 28.9728 36.1707C28.8548 36.1707 28.6188 36.2887 28.5009 36.4067C28.2649 36.5247 28.1469 36.6426 27.9109 36.7606C27.7929 36.8786 27.6749 36.8786 27.5569 36.9966C27.3209 37.2326 27.4389 37.2326 27.6749 37.3506C27.6749 37.4686 27.6749 37.5866 27.4389 37.5866L27.3209 37.7046C27.3209 37.8226 27.3209 38.0586 27.3209 38.1766C27.3209 38.2946 27.4389 38.5305 27.4389 38.6485C27.3209 39.0025 27.5569 39.2385 27.5569 39.4745C27.5569 39.4745 27.5569 39.5925 27.6749 39.5925C27.6749 39.5925 27.6749 39.7105 27.7929 39.7105C27.9108 39.9464 28.0289 40.0644 28.1469 40.3004L28.2649 40.4184C28.2649 40.5364 28.2649 40.7724 28.5009 40.7724C28.3829 40.8904 28.5008 40.8904 28.6188 41.0084C28.8548 41.1264 28.9728 41.3624 28.6188 41.5984C28.6188 41.5984 28.5009 41.5984 28.5009 41.7164C28.3829 41.8343 28.3829 41.9523 28.5009 41.9523C28.6188 41.9523 28.8548 41.9523 28.9728 41.9523C29.2088 41.9523 29.3268 41.9523 29.4448 41.8343C29.7988 41.5984 30.1528 41.5984 30.5067 41.7164C30.7427 41.8343 30.9787 41.7163 31.0967 41.4804C31.3327 41.4804 31.3327 41.3624 31.4507 41.2444Z" fill="#BA1F36"/>
<path d="M37.2323 40.4184C37.1143 40.4184 37.1143 40.3004 37.1143 40.3004C37.1143 40.1824 37.1144 39.9464 36.9964 39.8284C36.7604 39.7104 36.5244 39.5925 36.5244 39.3565C36.5244 39.2385 36.4064 39.2385 36.2884 39.2385C36.0524 39.1205 35.8164 39.0025 35.5804 39.1205C35.3445 39.2385 35.1085 39.2385 34.7545 39.2385C34.6365 39.2385 34.5185 39.2385 34.4005 39.2385C34.1645 39.2385 33.9285 39.3565 33.6925 39.5925C33.6925 39.5925 33.6925 39.7104 33.5746 39.7104C33.3386 40.0644 33.1026 40.3004 32.8666 40.6544C32.6306 41.0084 32.3946 41.3623 32.1586 41.7163C32.0406 41.8343 31.9226 41.9523 31.8047 42.0703C31.6867 42.3063 31.4507 42.4243 31.5687 42.6603C31.6866 42.8962 31.6867 43.1322 31.8047 43.3682V43.4862C32.1586 43.7222 32.5126 43.9582 32.8666 44.0762C32.9846 44.0762 33.1026 44.1942 33.2206 44.1942C33.4566 44.1942 33.6925 44.0762 33.9285 44.0762C34.5185 43.9582 35.1084 43.9582 35.6984 43.7222C36.0524 43.6042 36.0524 43.2502 36.2884 43.0142C36.4064 42.8962 36.4064 42.7783 36.5244 42.7783C36.7604 42.5423 36.9964 42.4243 36.9964 42.0703C36.9964 41.9523 37.1143 41.7163 37.1143 41.5983C37.1143 41.4803 37.1143 41.4803 37.1143 41.3623C37.1143 41.2444 36.9964 41.0084 37.1143 40.8904C37.4683 40.5364 37.4683 40.4184 37.2323 40.4184Z" fill="#BA1F36"/>
<path d="M27.7927 41.4804C27.6747 41.3624 27.5568 41.1264 27.5568 41.0084C27.4388 40.8904 27.4388 40.8904 27.3208 40.7724C27.2028 40.4184 27.0848 40.0645 26.8488 39.8285C26.6128 39.7105 26.4948 39.4745 26.2588 39.2385C26.1408 39.1205 26.0229 39.0025 25.7869 39.0025C25.6689 38.8845 25.5509 38.8845 25.3149 38.8845C25.1969 38.8845 25.0789 38.8845 24.9609 39.0025C24.7249 39.0025 24.489 39.1205 24.371 39.1205C23.899 39.2385 23.663 39.3565 23.427 39.8285C23.427 39.9465 23.309 40.1825 23.073 40.1825C22.837 40.3004 22.837 40.4184 22.719 40.5364C22.719 40.6544 22.7191 40.7724 22.6011 41.0084C22.6011 41.1264 22.483 41.2444 22.483 41.4804C22.483 41.7164 22.4831 42.0703 22.6011 42.3063C22.7191 42.5423 22.837 42.7783 23.073 42.8963C23.309 43.0143 23.427 43.2503 23.781 43.1323C23.781 43.1323 23.899 43.1323 24.017 43.2503C24.135 43.2503 24.253 43.3683 24.371 43.3683C24.607 43.3683 24.8429 43.4863 25.0789 43.4863C25.5509 43.6043 26.0229 43.7222 26.3769 43.8402C26.8488 43.9582 26.9668 43.9582 27.2028 43.6042C27.4387 43.2503 27.6747 43.0143 27.7927 42.6603C28.0287 42.3063 28.0287 42.3063 27.7927 41.9523C27.9107 41.7164 27.9107 41.5984 27.7927 41.4804Z" fill="#BA1F36"/>
</svg>
